<?xml version="1.0" encoding="UTF-8" standalone="no"?>
<svg
   xmlns:dc="http://purl.org/dc/elements/1.1/"
   xmlns:cc="http://creativecommons.org/ns#"
   xmlns:rdf="http://www.w3.org/1999/02/22-rdf-syntax-ns#"
   xmlns:svg="http://www.w3.org/2000/svg"
   xmlns="http://www.w3.org/2000/svg"
   xmlns:sodipodi="http://sodipodi.sourceforge.net/DTD/sodipodi-0.dtd"
   xmlns:inkscape="http://www.inkscape.org/namespaces/inkscape"
   version="1.1"
   x="0px"
   y="0px"
   viewBox="0 0 98.376991 88.489487"
   enable-background="new 0 0 40 40"
   xml:space="preserve"
   id="svg8"
   sodipodi:docname="logo2.svg"
   width="98.376991"
   height="88.489487"
   inkscape:version="0.92.3 (2405546, 2018-03-11)"
   inkscape:export-filename="/home/bob/Projects/WPRN/wprn-frontend/static/logo2.svg.png"
   inkscape:export-xdpi="390.33517"
   inkscape:export-ydpi="390.33517"><metadata
     id="metadata14"><rdf:RDF><cc:Work
         rdf:about=""><dc:format>image/svg+xml</dc:format><dc:type
           rdf:resource="http://purl.org/dc/dcmitype/StillImage" /><dc:title /></cc:Work></rdf:RDF></metadata><defs
     id="defs12" /><sodipodi:namedview
     pagecolor="#ffffff"
     bordercolor="#666666"
     borderopacity="1"
     objecttolerance="10"
     gridtolerance="10"
     guidetolerance="10"
     inkscape:pageopacity="0"
     inkscape:pageshadow="2"
     inkscape:window-width="2560"
     inkscape:window-height="1376"
     id="namedview10"
     showgrid="false"
     fit-margin-top="0"
     fit-margin-left="0"
     fit-margin-right="0"
     fit-margin-bottom="0"
     inkscape:zoom="6.675088"
     inkscape:cx="2.7089643"
     inkscape:cy="65.011148"
     inkscape:window-x="0"
     inkscape:window-y="27"
     inkscape:window-maximized="1"
     inkscape:current-layer="svg8" /><rect
     style="fill:#ffffff;fill-opacity:1;stroke:#333333;stroke-width:1;stroke-miterlimit:4;stroke-dasharray:none;stroke-opacity:1"
     id="rect839"
     width="97.376991"
     height="87.489487"
     x="0.49999991"
     y="0.5" /><g
     id="g846"
     transform="translate(29.188496,8.2631693)"><g
   id="g895"
   transform="translate(-3.6401367e-7,-17.977291)"><circle
     r="17.661228"
     cy="35.981575"
     cx="20"
     id="path891"
     style="fill:#333333;fill-opacity:1;stroke:none;stroke-width:0.88307303;stroke-miterlimit:4;stroke-dasharray:none;stroke-opacity:1" /><path
     style="fill:#ffffff"
     inkscape:connector-curvature="0"
     d="m 20,19.539574 c -9.065,0 -16.4410003,7.376 -16.4410003,16.442 0,9.066 7.3760003,16.442 16.4410003,16.442 9.065,0 16.441,-7.376 16.441,-16.442 0,-9.066 -7.376,-16.442 -16.441,-16.442 z m 11.214,27.025 c -0.038,-10e-4 -0.076,-0.008 -0.115,0 -0.16,0.032 -0.29,0.028 -0.347,-0.012 -0.729,-0.51 -0.699,-0.695 -0.612,-1.244 0.053,-0.331 0.118,-0.741 0.035,-1.275 -0.165,-1.064 -0.166,-1.696 1.738,-2.325 0.909,-0.301 1.415,-0.718 1.548,-1.276 0.198,-0.835 -0.549,-1.583 -1.043,-2.079 -0.115,-0.114 -0.141,-0.173 -0.145,-0.173 0.01,-0.042 0.076,-0.149 0.125,-0.228 0.156,-0.25 0.392,-0.628 0.41,-1.191 0.015,-0.432 -0.108,-0.76 -0.366,-0.975 -0.472,-0.396 -1.166,-0.245 -1.97,-0.071 l -0.391,0.082 c -0.798,0.161 -1.055,0.013 -1.114,-0.036 -0.024,-0.02 -0.088,-0.072 -0.089,-0.269 0,-0.95 -0.223,-1.657 -1.441,-2.887 -0.862,-0.871 -0.746,-1.21 -0.36,-2.333 l 0.115,-0.336 c 0.345,-1.036 1.853,-1.137 2.559,-0.9 0.79,0.264 1.17,-0.239 1.352,-0.482 0.038,-0.05 0.095,-0.126 0.081,-0.132 10e-4,0 0.034,0 0.113,0.036 0.256,0.112 0.524,0.114 0.778,0 0.31,-0.136 0.582,-0.455 0.832,-0.931 1.598,2.431 2.534,5.333 2.534,8.453 0,4.098 -1.614,7.817 -4.227,10.584 z m -17.255,-24.792 c -0.006,0.088 -0.009,0.177 0.007,0.263 0.076,0.417 0.382,0.754 0.907,1.001 1.362,0.64 2.878,0.611 3.889,0.593 0.153,-0.003 0.318,-0.004 0.476,-0.005 -0.213,0.09 -0.494,0.167 -0.755,0.239 -0.896,0.246 -2.01,0.551 -2.323,1.701 -0.357,1.31 -0.761,1.265 -1.554,1.061 -0.236,-0.062 -0.52,-0.21 -0.793,-0.354 -0.572,-0.301 -1.222,-0.645 -1.843,-0.383 -0.412,0.172 -0.705,0.562 -0.896,1.192 -0.199,0.654 -0.475,0.755 -0.767,0.862 -0.217,0.079 -0.5130003,0.187 -0.6550003,0.514 -0.152,0.346 -0.046,0.746 0.16,1.241 0.6860003,1.646 1.3880003,3.351 3.3800003,2.986 0.565,-0.103 0.958,-0.297 1.244,-0.439 0.48,-0.239 0.565,-0.28 1.275,0.479 l 0.259,0.279 c 1.314,1.417 2.362,2.54 4.148,2.383 1.119,-0.094 2.879,0.397 3.328,1.108 0.091,0.144 0.17,0.352 -0.026,0.688 -0.465,0.795 -1.479,1.614 -2.374,2.337 -0.962,0.776 -1.792,1.446 -2.045,2.122 -0.197,0.525 -0.904,1.148 -1.473,1.649 -0.542,0.478 -1.01,0.89 -1.186,1.299 -0.306,0.713 0.115,1.152 0.452,1.503 0.22,0.229 0.468,0.487 0.707,0.929 -0.035,0.045 -0.241,0.146 -0.624,0.146 -0.562,0 -1.299,-0.219 -1.68,-0.71 -0.911,-1.171 -0.844,-3.024 -0.478,-4.368 0.494,-1.817 -0.201,-3.448 -1.814,-4.254 -0.835,-0.417 -1.228,-2.588 -1.278,-3.858 -0.003,-0.066 -0.019,-0.132 -0.047,-0.192 -0.021,-0.044 -0.521,-1.088 -1.7510003,-1.863 -0.35,-0.221 -0.544,-0.792 -0.73,-1.344 -0.283,-0.834 -0.636,-1.873 -1.739,-1.983 -0.148,-0.015 -0.385,-0.087 -0.723,-0.313 1.67,-2.887 4.2330003,-5.191 7.3220003,-6.509 z m -9.4000003,14.209 c 0,-2.45 0.589,-4.76 1.608,-6.82 0.389,0.247 0.751,0.391 1.094,0.425 0.417,0.042 0.601,0.451 0.892,1.309 0.231,0.684 0.494,1.458 1.145,1.868 0.7980003,0.502 1.2120003,1.147 1.3370003,1.365 0.04,0.728 0.301,3.834 1.825,4.597 1.179,0.589 1.664,1.748 1.297,3.097 -0.43,1.577 -0.484,3.783 0.653,5.245 0.568,0.731 1.588,1.099 2.463,1.099 0.437,0 0.838,-0.091 1.128,-0.274 0.479,-0.302 0.621,-0.833 0.361,-1.355 -0.272,-0.543 -0.603,-0.888 -0.845,-1.14 -0.3,-0.313 -0.294,-0.325 -0.254,-0.418 0.086,-0.202 0.552,-0.613 0.927,-0.942 0.686,-0.604 1.463,-1.289 1.747,-2.049 0.157,-0.419 0.961,-1.067 1.737,-1.694 0.962,-0.776 2.053,-1.657 2.609,-2.611 0.341,-0.583 0.344,-1.196 0.009,-1.726 -0.746,-1.181 -2.987,-1.677 -4.259,-1.57 -1.32,0.117 -2.113,-0.755 -3.33,-2.067 l -0.262,-0.281 c -1.048,-1.122 -1.581,-1.125 -2.45,-0.692 -0.259,0.128 -0.552,0.274 -0.979,0.352 -1.076,0.199 -1.506,-0.536 -2.276,-2.387 -0.087,-0.207 -0.125,-0.335 -0.142,-0.41 0.019,-0.007 0.038,-0.014 0.056,-0.021 0.362,-0.132 1.037,-0.378 1.381,-1.51 0.093,-0.305 0.214,-0.514 0.324,-0.56 0.188,-0.079 0.635,0.157 0.992,0.345 0.324,0.17 0.658,0.347 1.008,0.437 1.513,0.396 2.32,-0.118 2.77,-1.766 0.152,-0.558 0.741,-0.758 1.622,-1 0.722,-0.197 1.467,-0.402 1.748,-1.056 0.151,-0.354 0.063,-0.606 -0.037,-0.755 -0.278,-0.414 -0.853,-0.403 -1.715,-0.386 -0.966,0.019 -2.292,0.043 -3.443,-0.498 -0.241,-0.114 -0.339,-0.22 -0.349,-0.276 -0.012,-0.06 0.042,-0.234 0.312,-0.512 0.021,-0.021 0.029,-0.047 0.045,-0.071 1.48,-0.473 3.055,-0.734 4.692,-0.734 4.984,0 9.412,2.384 12.237,6.061 -0.268,0.695 -0.497,0.922 -0.536,0.944 -0.822,-0.361 -1.226,0.181 -1.398,0.412 -0.043,0.056 -0.106,0.141 -0.126,0.154 0,-0.001 -0.032,0.004 -0.109,-0.022 -1.22,-0.405 -3.281,-0.093 -3.824,1.533 l -0.111,0.328 c -0.409,1.19 -0.704,2.05 0.595,3.362 1.152,1.163 1.152,1.635 1.152,2.185 0.001,0.554 0.249,0.873 0.456,1.042 0.419,0.342 1.053,0.421 1.944,0.242 l 0.404,-0.085 c 0.393,-0.084 0.986,-0.212 1.105,-0.153 10e-4,0 0.024,0.046 0.02,0.187 -0.01,0.296 -0.125,0.482 -0.259,0.697 -0.212,0.341 -0.566,0.911 0.161,1.637 0.274,0.275 0.847,0.848 0.777,1.14 -0.017,0.067 -0.128,0.307 -0.889,0.559 -2.344,0.773 -2.659,1.842 -2.413,3.427 0.059,0.378 0.012,0.676 -0.034,0.964 -0.126,0.791 -0.126,1.413 1.025,2.22 0.042,0.029 0.093,0.042 0.138,0.066 -2.737,2.468 -6.349,3.984 -10.315,3.984 -8.515,0 -15.4410003,-6.927 -15.4410003,-15.442 z"
     id="path2" /></g><text
   id="text823"
   y="62.896656"
   x="-18.276791"
   style="font-style:normal;font-variant:normal;font-weight:normal;font-stretch:normal;font-size:16.93636513px;line-height:1.25;font-family:Oswald;-inkscape-font-specification:Oswald;letter-spacing:0px;word-spacing:0px;fill:#333333;fill-opacity:1;stroke:none;stroke-width:0.39694604;"
   xml:space="preserve"><tspan
     style="font-style:normal;font-variant:normal;font-weight:normal;font-stretch:normal;font-size:30.66666603px;font-family:'Poiret One';-inkscape-font-specification:'Poiret One';stroke-width:0.39694604;fill:#333333;fill-opacity:1;"
     y="62.896656"
     x="-18.276791"
     id="tspan821"
     sodipodi:role="line">WPRN</tspan></text>


<text
   id="text827"
   y="70.351814"
   x="-17.973419"
   style="font-style:normal;font-variant:normal;font-weight:normal;font-stretch:normal;font-size:16px;line-height:1.25;font-family:Raleway;-inkscape-font-specification:Raleway;letter-spacing:0px;word-spacing:0px;fill:#000000;fill-opacity:1;stroke:none"
   xml:space="preserve"><tspan
     style="font-size:5.33333349px;letter-spacing:-0.40000001px"
     y="70.351814"
     x="-17.973419"
     id="tspan825"
     sodipodi:role="line">World Pandemic Research Network</tspan></text>


<path
   style="fill:#333333;fill-opacity:1;stroke-width:0.79724228"
   id="path2-3"
   d="m -3.9043975,16.07899 c 0,0 -1.107553,-0.005 -1.65208,-0.150863 -0.544527,-0.145905 -1.40795,-0.844156 -1.872752,-0.851975 -0.464802,-0.0078 -2.0264785,0.157353 -2.6478675,0.516112 -0.621388,0.358759 -1.994433,0.6912 -3.574607,1.143226 -1.580175,0.452026 -4.209542,0.681284 -5.351233,1.892786 -1.141691,1.211501 -1.489002,3.161117 -3.865653,4.625334 -0.759475,0.438483 -2.482693,2.077786 -2.63928,2.444365 l -0.225629,0.40644 0.558069,0.966605 c 0,0 0.461941,-0.634932 0.68757,-1.041373 0.22563,-0.406439 0.589346,-0.892604 0.963743,-1.20082 0.41426,-0.239172 2.631461,-1.979562 3.035039,-2.396684 0.334536,-0.377259 1.393641,-2.369598 1.935306,-2.866443 0.541664,-0.496846 1.874847,-0.898329 2.230744,-0.919691 0.355897,-0.02136 1.373045,-0.33244 1.68908,-0.422845 0.385076,-0.130271 1.747442,-0.640656 2.132521,-0.770924 0.523162,-0.209995 0.948104,-0.271215 0.948104,-0.271215 l 0.799336,-0.369444 c 0,0 0.276173,-0.159448 0.563026,-0.140947 0.286854,0.0185 0.504665,0.07686 0.552346,-0.318897 0.116724,-0.435622 0.6505735,-0.467661 0.8285195,-0.478346 0.246989,-0.05055 0.642751,-0.0029 0.860561,0.0555 0.217811,0.05836 0.26835,0.305356 0.526027,0.432759 0.257672,0.127406 2.196606,0.296769 2.592365,0.344449 0.39576,0.04768 1.484812,0.339492 1.702624,0.397855 0.257672,0.127406 1.099734,0.469759 1.397269,0.666208 0.297535,0.196448 1.44781103,0.9132 1.63644203,1.080467 0.159448,0.276173 0.685474,0.708932 0.80506,0.916062 0.119587,0.20713 0.159449,0.276173 0.239173,0.414259 0.05055,0.24699 -0.07686,0.504665 -0.254811,0.515345 -0.246989,0.05055 -0.493982,0.101087 -0.762337,-0.204267 -0.26835,-0.305355 -1.07341503,-1.221416 -1.29122503,-1.279778 -0.217812,-0.05836 -1.049191,-0.222767 -1.336045,-0.241268 -0.326717,-0.08754 -3.28566,-0.588579 -3.561833,-0.42913 -0.276173,0.159448 -1.402227,0.441345 -1.792261,1.679166 -0.459079,1.277682 -0.488261,1.386588 -0.626347,1.466312 -0.24699,0.05055 -0.196448,0.297535 -0.642751,0.0029 -0.4064405,-0.22563 -0.7331555,-0.313172 -0.7331555,-0.313172 0,0 0.438483,0.759474 0.8449235,0.985104 0.40644,0.22563 1.099734,0.46976 1.495494,0.517441 0.395759,0.04768 1.049191,0.222768 1.197958,0.320992 0.188626,0.16727 1.187277,0.143043 1.673442,0.506759 0.486164,0.363717 0.515346,0.254811 0.60575,0.570846 0.130271,0.385076 0.02422,0.998648 0.390803,1.155235 0.366578,0.156587 0.486164,0.363716 0.486164,0.363716 l -1.880571,-0.387173 c 0,0 -4.156903,-0.822028 -4.5419815,-0.691761 -0.385076,0.130271 -3.888549,-0.516674 -4.744153,-1.679727 -0.855604,-1.163054 -1.524674,-0.408535 -1.524674,-0.408535 0,0 0.239172,0.414259 0.536707,0.610707 0.297535,0.196449 0.823562,0.629208 0.55807,0.966606 -0.22563,0.406439 -2.346702,3.748367 -2.452746,4.361936 -0.106043,0.61357 -2.470478,7.041846 -2.470478,7.041846 l 0.231353,0.879062 0.41426,-0.239172 c 0,0 1.353777,-2.438642 1.67477,-3.6366 0.350173,-1.306865 1.111743,-3.495652 1.111743,-3.495652 0,0 0.466898,-1.742485 0.790752,-2.297693 0.323854,-0.555208 0.854837,-1.230002 1.516088,-1.519718 0.661249,-0.289719 1.24564,-0.07477 1.968115,0.06046 0.722476,0.135225 1.800848,0.249087 2.443598,0.246225 0.5737085,0.037 1.2164595,0.03414 1.7901665,0.07114 0.286855,0.0185 0.573708,0.037 0.900424,0.124544 0.326716,0.08754 0.682613,0.06618 0.940286,0.193586 0.217811,0.05836 0.40644,0.22563 0.664113,0.353036 0.40644,0.225629 0.823562,0.629207 1.317545,0.528121 0.42494,-0.06122 0.879061,-0.231353 1.26414,-0.361621 0.454119,-0.170133 1.333183,-0.401483 1.489767,-0.768065 0.156586,-0.366578 0.175087,-0.653431 0.63988904,-0.645613 0.50466399,0.07686 0.96946699,0.08468 1.09687299,-0.172991 0.196448,-0.297535 0.331672,-1.02001 0.339491,-1.484813 0.0078,-0.464802 -0.231353,-0.879061 -0.412164,-1.511131 -0.220672,-0.701113 -0.685475,-0.708932 -0.220672,-0.701113 0.504665,0.07686 1.73962297,-0.175853 1.89620897,-0.542432 0.156587,-0.366577 0.037,-0.573707 -0.122448,-0.84988 -0.486165,-0.363716 -4.171212,-4.035782 -5.762068,-3.761705 z m -0.62195,6.895174 c 0.02136,0.355896 -0.167269,0.188626 -0.464803,-0.0078 -0.297534,-0.196449 -0.544526,-0.145905 -0.81288,-0.451259 -0.26835,-0.305357 -0.518207,-0.897562 -0.895466,-1.232098 -0.337398,-0.265491 -0.504666,-0.07686 -0.8022,-0.273311 -0.297535,-0.196448 0.597165,-1.357406 0.597165,-1.357406 l -0.02632,0.751656 c -0.02632,0.751656 0.19931,0.345216 0.714656,0.600027 0.515346,0.254811 0.773018,0.382215 1.179458,0.607845 0.475484,0.185769 0.55807,0.966606 0.510389,1.362365 z m 3.72337604,-1.045001 c 0.369444,0.799335 0.50256999,1.827167 0.48406999,2.11402 -0.08754,0.326716 -0.53384599,0.03204 -0.53384599,0.03204 -0.28685504,-0.0185 -0.77588004,-1.024968 -0.77588004,-1.024968 -0.318897,-0.552346 -0.08545,-1.423589 0.01278,-1.572356 0.09823,-0.148763 -0.09041,-0.316032 -0.199311,-0.345215 -0.108899,-0.02918 -0.642751,0.0029 -1.158097,-0.251949 -0.515345,-0.254812 -1.450673,-1.555951 -1.450673,-1.555951 0,0 1.474131,0.161543 2.247149,0.543759 0.664113,0.353036 1.004372,1.261278 1.37381204,2.060616 z"
   inkscape:connector-curvature="0" /><path
   style="fill:#333333;fill-opacity:1;stroke-width:0.74146938"
   id="path4"
   d="m 62.24349,10.241349 c -0.07333,0.01099 -3.691976,-0.121528 -3.996278,-0.150904 -0.293313,0.04395 -1.770866,0.190387 -2.133916,0.769617 -0.363053,0.579227 -0.9351,1.264746 -1.415433,1.561649 0,0 -1.891955,0.883309 -2.196257,0.853935 -0.241961,-0.113693 0.469345,-0.370232 0.854373,-0.802802 0.385028,-0.432571 1.463413,-3.7431093 1.463413,-3.7431093 l -0.439968,0.065929 c 0,0 -0.370452,1.0301843 -0.473155,1.3454739 -0.102705,0.315289 -0.920521,1.862362 -1.463193,2.24358 -0.616002,0.392207 -3.409872,1.260719 -3.556529,1.282695 -0.135667,0.09531 -0.857961,0.278516 -1.242989,0.711086 -0.396016,0.359243 -0.425392,0.663543 -1.12571,0.993411 -0.711305,0.256539 -2.17428,1.000589 -2.500558,0.824557 -0.399604,-0.165043 -0.883528,-0.392426 -0.769836,-0.634387 0.113693,-0.241961 0.01839,-0.377629 0.531684,-0.454547 0.502309,-0.150249 0.762658,-0.414183 0.879939,-0.131859 0.106297,0.208996 -0.132082,0.61959 0.08791,0.586626 0.230973,0.04036 0.282324,-0.117285 0.3117,-0.421582 0.02942,-0.304298 -0.06593,-0.43997 0.205407,-0.630579 0.271336,-0.19061 1.92133,-1.18761 1.950706,-1.491911 0.01839,-0.37763 -0.0072,-1.048572 0.377849,-1.481142 0.385028,-0.432571 0.832395,-0.949458 1.375069,-1.330677 0.542672,-0.3812187 0.509707,-0.6012035 0.509707,-0.6012035 0,0 0.238372,-0.4105944 -0.293313,0.043953 -0.531683,0.4545471 -1.419021,1.0373641 -1.752698,1.3122891 -0.322688,0.348255 0.0036,0.524286 -0.623398,0.843166 -0.62699,0.318878 -0.594025,0.538862 -1.015608,0.227166 -0.432569,-0.385028 -0.30789,-0.553661 -0.579226,-0.363052 -0.271337,0.19061 -0.113692,0.241961 -0.648966,0.172226 -0.535274,-0.06973 -2.61403,-0.433009 -3.222632,-0.49176 -0.608602,-0.05875 -1.297931,0.344445 -2.137506,0.245328 -0.766248,-0.110097 -1.195228,0.02916 -1.154865,-0.201814 0.04037,-0.230974 -0.106296,-0.208996 0.718704,-0.707496 0.824996,-0.4985 0.74068,-0.560841 1.536303,-0.7550401 0.795621,-0.1942017 1.906533,-0.2856941 2.8598,-0.4285411 0,0 1.319908,-0.1977891 1.48854,-0.073109 0.230974,0.040365 0.56824,0.2897236 0.788224,0.2567587 0,0 0.553662,-0.307891 0.835986,-0.4251725 0.282324,-0.117284 3.406282,-1.7850043 3.406282,-1.7850043 0,0 0.135666,-0.095308 0.502308,-0.1502489 0.366641,-0.054941 1.257569,-0.1134692 1.62421,-0.1684106 0.36664,-0.054941 1.088935,-0.238155 1.360271,-0.4287617 0.344664,-0.2015977 3.069016,-2.0343643 3.706994,-2.2799141 0.637977,-0.2455508 1.404224,-0.1354455 2.482169,-0.446932 1.151276,-0.3224686 2.060589,-0.758629 2.665602,-1.2241648 0.605013,-0.4655346 0.528094,-0.9788325 0.528094,-0.9788325 0,0 -3.838851,1.3999758 -4.645462,1.5208468 -0.80661,0.1208708 -1.946897,0.5166677 -2.760905,1.0884964 -0.814011,0.5718277 -4.150554,1.8215586 -4.579534,1.9608163 -0.428981,0.1392608 -4.91321,2.2357416 -5.35318,2.3016712 -0.439968,0.065929 -4.476609,0.1459985 -5.752565,0.6371003 -1.275955,0.4911001 -2.309948,1.0958937 -2.42364,1.3378557 -0.04037,0.230974 -0.01479,0.901915 0.153836,1.026595 0.168633,0.12468 0.74786,0.48773 1.041173,0.443778 0.293312,-0.04395 0.817599,-0.04754 1.195229,-0.02916 0.366639,-0.05494 0.502308,-0.150249 0.953266,-0.142848 0.450957,0.0074 1.341884,-0.05113 1.961474,0.08095 0.61959,0.132083 1.49953,2.2e-4 1.99444,0.300934 0.49491,0.300711 0.381218,0.542673 0.403195,0.689329 0.02197,0.146657 -0.14307,0.546261 -0.476743,0.821188 -0.344665,0.201598 -1.976272,0.820969 -2.089963,1.06293 -0.124681,0.168633 -0.289724,0.568239 -0.08812,0.912904 0.201597,0.344664 0.13926,0.42898 0.538864,0.594023 0.399605,0.165043 0.736871,0.414404 0.98982,0.601423 0.252951,0.187021 0.663544,0.425392 0.791813,0.781045 0.201598,0.344665 0.604794,1.033993 0.733063,1.389646 0.117285,0.282325 1.286724,1.081756 1.821997,1.151495 0.461946,0.08073 1.008209,0.223793 1.363861,0.09552 0.355653,-0.128272 0.583037,-0.612191 0.68574,-0.92748 0.102705,-0.31529 0.09915,-0.839571 0.04417,-1.206216 -0.128271,-0.355653 0.09172,-0.388618 -0.278514,-0.857962 -0.296902,-0.480334 -0.381219,-0.542674 -0.414183,-0.762658 -0.03296,-0.219983 -0.15025,-0.502307 0.256758,-0.788222 0.344664,-0.201599 0.344664,-0.201599 0.36664,-0.05494 0.02197,0.146656 0.01457,0.597615 0.06952,0.964254 0.05494,0.366642 0.0841,1.56187 0.274706,1.833206 0.19061,0.271336 0.718486,0.792033 0.876131,0.843384 0.157645,0.05135 0.443557,0.458356 0.953266,-0.142847 0.436379,-0.590216 0.645376,-0.696508 0.597833,-1.514107 -0.04754,-0.817599 -0.388398,-1.591243 0.341299,-2.225411 0.729691,-0.634169 1.961694,-1.418582 2.148713,-1.671532 0.18702,-0.25295 1.155084,-1.297712 1.415432,-1.56165 0.260348,-0.263938 0.656364,-0.623179 1.125708,-0.99341 0.469345,-0.370231 0.835986,-0.425172 1.517917,-0.37741 0.681929,0.04777 3.838633,0.09955 4.487598,-0.07267 0.648966,-0.172226 0.817599,-0.04754 0.795621,-0.194202 -0.02198,-0.146656 -0.08791,-0.586625 -0.08791,-0.586625 0,0 -1.18424,0.10248 -1.257567,0.113469 z m -15.374237,8.976593 c -0.117284,-0.282325 -0.601203,-0.509709 -0.949457,-0.832398 -0.348254,-0.322687 -0.465536,-0.605011 -0.68911,-1.096333 -0.223573,-0.491321 0.01839,-0.377629 0.352063,-0.652554 0.333677,-0.274927 0.967844,0.454765 0.967844,0.454765 0,0 0.516668,1.946898 0.527657,2.020226 0.106296,0.208995 -0.09172,0.388617 -0.208996,0.106296 z m 0.660393,-3.097952 c -0.520695,0.527874 0.161237,0.575635 0.172226,0.648963 0.01099,0.07333 0.509488,0.898326 0.795403,1.30533 0.285915,0.407005 0.02556,0.670943 0.0072,1.048572 -0.01839,0.37763 -0.0074,0.450958 -0.352064,0.652556 -0.344664,0.201597 -0.241961,-0.113693 -0.285913,-0.407006 -0.04395,-0.293312 -0.315074,-1.602231 -0.421363,-1.811228 -0.106296,-0.208996 -0.31888,-0.62699 -0.615782,-1.107322 -0.296902,-0.480332 0.352063,-0.652554 1.019416,-1.202405 0.594024,-0.538864 1.880967,-0.956638 1.880967,-0.956638 l -0.469344,0.370231 c -0.07333,0.01099 -1.210025,0.93107 -1.730722,1.458946 z m 5.272452,-1.839727 c -0.531685,0.454548 -0.909313,0.436161 -1.411623,0.586407 -0.208996,0.106296 -0.43997,0.06593 -0.513296,0.07692 0.230972,0.04036 0.337264,0.249359 0.476523,0.67834 0.150249,0.502309 0.05494,0.366642 -0.267747,0.714895 -0.322688,0.348254 -0.102705,0.315289 -0.03678,0.755258 0.06593,0.439968 0.01077,1.572857 -0.344884,1.701125 -0.355653,0.128273 -0.293313,0.04395 -0.49491,-0.300711 -0.274926,-0.333676 -0.113469,-1.257568 -0.06212,-1.415212 0.05135,-0.157646 -0.09889,-0.659954 -0.142847,-0.953266 -0.04395,-0.293312 0.37045,-1.030184 0.37045,-1.030184 0,0 -0.157645,-0.05135 -0.443559,-0.458356 -0.285915,-0.407005 1.598643,-0.839357 1.954296,-0.967626 0.355651,-0.128272 1.873569,-0.505679 1.873569,-0.505679 0,0 -0.436381,0.590215 -0.957077,1.118091 z m -1.924919,0.663325 c 0,0 0,0 0,0 -0.08432,-0.06234 -0.08432,-0.06234 0,0 z"
   inkscape:connector-curvature="0" /><path
   id="path6"
   d="m 46.596215,-21.00706 c -0.1,-0.1 -0.1,-0.1 0,0 0,0 0,0 0,0 z"
   inkscape:connector-curvature="0" /></g><flowRoot
     xml:space="preserve"
     id="flowRoot831"
     style="font-style:normal;font-variant:normal;font-weight:normal;font-stretch:normal;font-size:16px;line-height:1.25;font-family:Raleway;-inkscape-font-specification:Raleway;letter-spacing:0px;word-spacing:0px;fill:#000000;fill-opacity:1;stroke:none"
     transform="translate(29.188496,19.244743)"><flowRegion
       id="flowRegion833"><rect
         id="rect835"
         width="95.55085"
         height="384.85168"
         x="-11.54661"
         y="-291.10168" /></flowRegion><flowPara
       id="flowPara837" /></flowRoot></svg>