<?xml version="1.0" encoding="UTF-8"?>
<svg width="88" height="88" enable-background="new 0 0 40 40" version="1.1" viewBox="0 0 88 88" xml:space="preserve" xmlns="http://www.w3.org/2000/svg" xmlns:cc="http://creativecommons.org/ns#" xmlns:dc="http://purl.org/dc/elements/1.1/" xmlns:rdf="http://www.w3.org/1999/02/22-rdf-syntax-ns#"><metadata><rdf:RDF><cc:Work rdf:about=""><dc:format>image/svg+xml</dc:format><dc:type rdf:resource="http://purl.org/dc/dcmitype/StillImage"/><dc:title/></cc:Work></rdf:RDF></metadata><rect x=".095134" y=".095134" width="87.81" height="87.81" fill="#fff" stroke="#333" stroke-width=".19027"/><g transform="translate(24 8.6259)"><g transform="translate(-3.6401e-7 -17.977)"><circle cx="20" cy="35.982" r="17.661" fill="#333"/><path d="m20 19.54c-9.065 0-16.441 7.376-16.441 16.442s7.376 16.442 16.441 16.442 16.441-7.376 16.441-16.442-7.376-16.442-16.441-16.442zm11.214 27.025c-0.038-1e-3 -0.076-8e-3 -0.115 0-0.16 0.032-0.29 0.028-0.347-0.012-0.729-0.51-0.699-0.695-0.612-1.244 0.053-0.331 0.118-0.741 0.035-1.275-0.165-1.064-0.166-1.696 1.738-2.325 0.909-0.301 1.415-0.718 1.548-1.276 0.198-0.835-0.549-1.583-1.043-2.079-0.115-0.114-0.141-0.173-0.145-0.173 0.01-0.042 0.076-0.149 0.125-0.228 0.156-0.25 0.392-0.628 0.41-1.191 0.015-0.432-0.108-0.76-0.366-0.975-0.472-0.396-1.166-0.245-1.97-0.071l-0.391 0.082c-0.798 0.161-1.055 0.013-1.114-0.036-0.024-0.02-0.088-0.072-0.089-0.269 0-0.95-0.223-1.657-1.441-2.887-0.862-0.871-0.746-1.21-0.36-2.333l0.115-0.336c0.345-1.036 1.853-1.137 2.559-0.9 0.79 0.264 1.17-0.239 1.352-0.482 0.038-0.05 0.095-0.126 0.081-0.132 1e-3 0 0.034 0 0.113 0.036 0.256 0.112 0.524 0.114 0.778 0 0.31-0.136 0.582-0.455 0.832-0.931 1.598 2.431 2.534 5.333 2.534 8.453 0 4.098-1.614 7.817-4.227 10.584zm-17.255-24.792c-6e-3 0.088-9e-3 0.177 7e-3 0.263 0.076 0.417 0.382 0.754 0.907 1.001 1.362 0.64 2.878 0.611 3.889 0.593 0.153-3e-3 0.318-4e-3 0.476-5e-3 -0.213 0.09-0.494 0.167-0.755 0.239-0.896 0.246-2.01 0.551-2.323 1.701-0.357 1.31-0.761 1.265-1.554 1.061-0.236-0.062-0.52-0.21-0.793-0.354-0.572-0.301-1.222-0.645-1.843-0.383-0.412 0.172-0.705 0.562-0.896 1.192-0.199 0.654-0.475 0.755-0.767 0.862-0.217 0.079-0.513 0.187-0.655 0.514-0.152 0.346-0.046 0.746 0.16 1.241 0.686 1.646 1.388 3.351 3.38 2.986 0.565-0.103 0.958-0.297 1.244-0.439 0.48-0.239 0.565-0.28 1.275 0.479l0.259 0.279c1.314 1.417 2.362 2.54 4.148 2.383 1.119-0.094 2.879 0.397 3.328 1.108 0.091 0.144 0.17 0.352-0.026 0.688-0.465 0.795-1.479 1.614-2.374 2.337-0.962 0.776-1.792 1.446-2.045 2.122-0.197 0.525-0.904 1.148-1.473 1.649-0.542 0.478-1.01 0.89-1.186 1.299-0.306 0.713 0.115 1.152 0.452 1.503 0.22 0.229 0.468 0.487 0.707 0.929-0.035 0.045-0.241 0.146-0.624 0.146-0.562 0-1.299-0.219-1.68-0.71-0.911-1.171-0.844-3.024-0.478-4.368 0.494-1.817-0.201-3.448-1.814-4.254-0.835-0.417-1.228-2.588-1.278-3.858-3e-3 -0.066-0.019-0.132-0.047-0.192-0.021-0.044-0.521-1.088-1.751-1.863-0.35-0.221-0.544-0.792-0.73-1.344-0.283-0.834-0.636-1.873-1.739-1.983-0.148-0.015-0.385-0.087-0.723-0.313 1.67-2.887 4.233-5.191 7.322-6.509zm-9.4 14.209c0-2.45 0.589-4.76 1.608-6.82 0.389 0.247 0.751 0.391 1.094 0.425 0.417 0.042 0.601 0.451 0.892 1.309 0.231 0.684 0.494 1.458 1.145 1.868 0.798 0.502 1.212 1.147 1.337 1.365 0.04 0.728 0.301 3.834 1.825 4.597 1.179 0.589 1.664 1.748 1.297 3.097-0.43 1.577-0.484 3.783 0.653 5.245 0.568 0.731 1.588 1.099 2.463 1.099 0.437 0 0.838-0.091 1.128-0.274 0.479-0.302 0.621-0.833 0.361-1.355-0.272-0.543-0.603-0.888-0.845-1.14-0.3-0.313-0.294-0.325-0.254-0.418 0.086-0.202 0.552-0.613 0.927-0.942 0.686-0.604 1.463-1.289 1.747-2.049 0.157-0.419 0.961-1.067 1.737-1.694 0.962-0.776 2.053-1.657 2.609-2.611 0.341-0.583 0.344-1.196 9e-3 -1.726-0.746-1.181-2.987-1.677-4.259-1.57-1.32 0.117-2.113-0.755-3.33-2.067l-0.262-0.281c-1.048-1.122-1.581-1.125-2.45-0.692-0.259 0.128-0.552 0.274-0.979 0.352-1.076 0.199-1.506-0.536-2.276-2.387-0.087-0.207-0.125-0.335-0.142-0.41 0.019-7e-3 0.038-0.014 0.056-0.021 0.362-0.132 1.037-0.378 1.381-1.51 0.093-0.305 0.214-0.514 0.324-0.56 0.188-0.079 0.635 0.157 0.992 0.345 0.324 0.17 0.658 0.347 1.008 0.437 1.513 0.396 2.32-0.118 2.77-1.766 0.152-0.558 0.741-0.758 1.622-1 0.722-0.197 1.467-0.402 1.748-1.056 0.151-0.354 0.063-0.606-0.037-0.755-0.278-0.414-0.853-0.403-1.715-0.386-0.966 0.019-2.292 0.043-3.443-0.498-0.241-0.114-0.339-0.22-0.349-0.276-0.012-0.06 0.042-0.234 0.312-0.512 0.021-0.021 0.029-0.047 0.045-0.071 1.48-0.473 3.055-0.734 4.692-0.734 4.984 0 9.412 2.384 12.237 6.061-0.268 0.695-0.497 0.922-0.536 0.944-0.822-0.361-1.226 0.181-1.398 0.412-0.043 0.056-0.106 0.141-0.126 0.154 0-1e-3 -0.032 4e-3 -0.109-0.022-1.22-0.405-3.281-0.093-3.824 1.533l-0.111 0.328c-0.409 1.19-0.704 2.05 0.595 3.362 1.152 1.163 1.152 1.635 1.152 2.185 1e-3 0.554 0.249 0.873 0.456 1.042 0.419 0.342 1.053 0.421 1.944 0.242l0.404-0.085c0.393-0.084 0.986-0.212 1.105-0.153 1e-3 0 0.024 0.046 0.02 0.187-0.01 0.296-0.125 0.482-0.259 0.697-0.212 0.341-0.566 0.911 0.161 1.637 0.274 0.275 0.847 0.848 0.777 1.14-0.017 0.067-0.128 0.307-0.889 0.559-2.344 0.773-2.659 1.842-2.413 3.427 0.059 0.378 0.012 0.676-0.034 0.964-0.126 0.791-0.126 1.413 1.025 2.22 0.042 0.029 0.093 0.042 0.138 0.066-2.737 2.468-6.349 3.984-10.315 3.984-8.515 0-15.441-6.927-15.441-15.442z" fill="#fff"/></g><g fill="#333" stroke-width=".39695" aria-label="WPRN"><path d="m-7.5741 63.295-10.089-23.399h1.1347l9.108 21.068 4.2627-9.9667-4.7533-11.101h1.104l4.2627 10.089 4.3853-10.089h0.85867l-4.784 11.071 4.3547 10.089 9.292-21.16h0.828l-10.212 23.399-4.876-11.224z"/><path d="m15.378 39.897h1.012q3.1893 0 5.428 2.208 2.2387 2.1773 2.2387 5.152 0 2.9747-2.3307 5.1213-2.3 2.1467-5.0907 2.1467h-0.24533v8.372h-1.012zm1.012 13.769h0.24533q2.576 0 4.4773-1.9013 1.932-1.9013 1.932-4.508 0-2.6067-1.9627-4.5387-1.932-1.932-4.4467-1.932h-0.24533z"/><path d="m27.388 39.897h1.3187q2.9747 0 5.2133 2.208 2.2693 2.1773 2.2693 5.152 0 2.944-2.3 5.1213-2.3 2.1773-4.9373 2.1773h-0.21467l7.912 8.3413h-1.3187l-6.9613-7.2987v7.2987h-0.98133zm0.98133 13.769h0.552q2.484 0 4.3853-1.9013 1.9013-1.9013 1.9013-4.508 0-2.6067-1.9627-4.5387-1.9627-1.932-4.4773-1.932h-0.39867z"/><path d="m56.774 39.897h0.88933v23.337l-16.928-20.823v20.485h-0.88933v-23.337l16.928 20.792z"/></g>
<g aria-label="World Pandemic Research Network"><path d="m-16.075 66.592h0.352l0.53333 1.344 0.53867-1.344h0.35733l-0.66133 1.616 0.72533 1.712 1.3707-3.3547h0.40533l-1.6053 3.7867h-0.33067l-0.79467-1.872-0.8 1.872h-0.32533l-1.6-3.7867h0.4l1.376 3.3547 0.72-1.712z"/><path d="m-11.55 70.405q-0.304 0-0.55467-0.112-0.25067-0.11733-0.43733-0.31467-0.18133-0.19733-0.28267-0.45867-0.10133-0.26133-0.10133-0.54933 0-0.29333 0.10133-0.55467 0.10667-0.26133 0.288-0.45867 0.18667-0.19733 0.43733-0.31467t0.54933-0.11733q0.29867 0 0.54933 0.11733 0.256 0.11733 0.43733 0.31467 0.18667 0.19733 0.288 0.45867 0.10667 0.26133 0.10667 0.55467 0 0.288-0.10133 0.54933-0.10133 0.26133-0.288 0.45867-0.18133 0.19733-0.43733 0.31467-0.25067 0.112-0.55467 0.112zm-1.008-1.4293q0 0.23467 0.08 0.43733 0.08 0.19733 0.21333 0.352 0.13867 0.14933 0.32 0.23467 0.18667 0.08533 0.39467 0.08533t0.38933-0.08533q0.18667-0.09067 0.32533-0.24 0.13867-0.15467 0.21867-0.35733t0.08-0.43733q0-0.22933-0.08-0.432-0.08-0.208-0.21867-0.35733-0.13867-0.15467-0.32533-0.24-0.18133-0.09067-0.38933-0.09067t-0.38933 0.09067q-0.18133 0.08533-0.32 0.24-0.13867 0.15467-0.21867 0.36267-0.08 0.20267-0.08 0.43733z"/><path d="m-8.5701 67.893q-0.368 0.01067-0.64 0.20267-0.272 0.192-0.384 0.528v1.728h-0.36267v-2.7787h0.34133v0.66667q0.15467-0.32 0.416-0.50133 0.26133-0.18133 0.56-0.18133 0.042667 0 0.069333 0.0053z"/><path d="m-8.4658 66.458h0.36267v3.264q0 0.15467 0.085333 0.24533 0.085333 0.08533 0.24 0.08533 0.058667 0 0.13867-0.016 0.08-0.016 0.14933-0.04267l0.064 0.29333q-0.10133 0.04267-0.25067 0.06933-0.144 0.02667-0.25067 0.02667-0.25067 0-0.39467-0.13867-0.144-0.144-0.144-0.4z"/><path d="m-6.2925 70.405q-0.288 0-0.53333-0.11733-0.24533-0.12267-0.42133-0.32-0.176-0.19733-0.27733-0.45333-0.096-0.26133-0.096-0.544 0-0.29333 0.096-0.55467 0.096-0.26667 0.26133-0.464 0.17067-0.19733 0.4-0.30933 0.23467-0.11733 0.512-0.11733 0.352 0 0.624 0.18667 0.272 0.18133 0.42667 0.44267v-1.696h0.36267v3.424q0 0.14933 0.128 0.14933v0.32q-0.08 0.016-0.128 0.016-0.128 0-0.224-0.08-0.096-0.08533-0.096-0.20267v-0.272q-0.16533 0.272-0.448 0.432-0.28267 0.16-0.58667 0.16zm0.08-0.32q0.13333 0 0.28267-0.05333 0.15467-0.05333 0.288-0.144 0.13333-0.096 0.224-0.21867 0.096-0.128 0.11733-0.272v-0.85867q-0.053333-0.144-0.15467-0.26667-0.10133-0.128-0.23467-0.224-0.128-0.096-0.27733-0.14933-0.14933-0.05333-0.29333-0.05333-0.224 0-0.40533 0.096-0.18133 0.096-0.31467 0.256-0.128 0.15467-0.19733 0.35733-0.069333 0.20267-0.069333 0.416 0 0.224 0.08 0.42667 0.08 0.20267 0.21867 0.35733 0.13867 0.14933 0.32533 0.24 0.192 0.09067 0.41067 0.09067z"/><path d="m-3.4821 70.352v-3.7867h1.568q0.24533 0 0.448 0.10667 0.208 0.10133 0.35733 0.272 0.14933 0.16533 0.23467 0.37867 0.085333 0.21333 0.085333 0.432 0 0.23467-0.08 0.45333-0.08 0.21333-0.224 0.37867-0.144 0.16533-0.34667 0.26667-0.19733 0.10133-0.44267 0.10133h-1.2267v1.3973zm0.37333-1.728h1.2107q0.16533 0 0.29867-0.06933 0.13867-0.07467 0.23467-0.192 0.096-0.12267 0.14933-0.27733 0.053333-0.16 0.053333-0.33067 0-0.176-0.064-0.33067-0.058667-0.16-0.16533-0.27733-0.10133-0.11733-0.24533-0.18133-0.13867-0.06933-0.29333-0.06933h-1.1787z"/><path d="m0.023164 70.405q-0.19733 0-0.368-0.064-0.16533-0.06933-0.29333-0.18667-0.12267-0.11733-0.192-0.272-0.069333-0.16-0.069333-0.34133 0-0.18133 0.085333-0.336 0.085333-0.15467 0.24-0.26667 0.15467-0.112 0.368-0.17067 0.21333-0.064 0.46933-0.064 0.21333 0 0.432 0.03733 0.21867 0.03733 0.38933 0.10667v-0.25067q0-0.368-0.208-0.58133-0.208-0.21867-0.576-0.21867-0.21333 0-0.43733 0.08533t-0.45333 0.24533l-0.128-0.24q0.53867-0.36267 1.0453-0.36267 0.52267 0 0.82133 0.29333 0.29867 0.29333 0.29867 0.81067v1.2533q0 0.14933 0.13333 0.14933v0.32q-0.090667 0.016-0.13867 0.016-0.13867 0-0.21867-0.06933-0.074667-0.06933-0.08-0.192l-0.010667-0.21867q-0.192 0.25067-0.48533 0.384-0.288 0.13333-0.624 0.13333zm0.085333-0.27733q0.28267 0 0.51733-0.10667 0.24-0.10667 0.36267-0.28267 0.048-0.048 0.069333-0.10133 0.026667-0.05867 0.026667-0.10667v-0.45333q-0.18133-0.06933-0.37867-0.10667-0.192-0.03733-0.39467-0.03733-0.384 0-0.624 0.16-0.24 0.16-0.24 0.42133 0 0.128 0.048 0.24 0.053333 0.112 0.13867 0.19733 0.090667 0.08 0.21333 0.128 0.12267 0.048 0.26133 0.048z"/><path d="m4.1667 70.352h-0.36267v-1.552q0-0.496-0.14933-0.72-0.144-0.224-0.448-0.224-0.16 0-0.32 0.05867t-0.29867 0.16533q-0.13333 0.10667-0.24 0.256-0.10667 0.144-0.15467 0.31467v1.7013h-0.36267v-2.7787h0.33067v0.62933q0.17067-0.304 0.48533-0.49067 0.32-0.18667 0.69333-0.18667 0.22933 0 0.38933 0.08533t0.256 0.24q0.096 0.15467 0.13867 0.37867 0.042667 0.224 0.042667 0.496z"/><path d="m5.6867 70.405q-0.288 0-0.53333-0.11733-0.24533-0.12267-0.42133-0.32-0.176-0.19733-0.27733-0.45333-0.096-0.26133-0.096-0.544 0-0.29333 0.096-0.55467 0.096-0.26667 0.26133-0.464 0.17067-0.19733 0.4-0.30933 0.23467-0.11733 0.512-0.11733 0.352 0 0.624 0.18667 0.272 0.18133 0.42667 0.44267v-1.696h0.36267v3.424q0 0.14933 0.128 0.14933v0.32q-0.08 0.016-0.128 0.016-0.128 0-0.224-0.08-0.096-0.08533-0.096-0.20267v-0.272q-0.16533 0.272-0.448 0.432t-0.58667 0.16zm0.08-0.32q0.13333 0 0.28267-0.05333 0.15467-0.05333 0.288-0.144 0.13333-0.096 0.224-0.21867 0.096-0.128 0.11733-0.272v-0.85867q-0.053333-0.144-0.15467-0.26667-0.10133-0.128-0.23467-0.224-0.128-0.096-0.27733-0.14933-0.14933-0.05333-0.29333-0.05333-0.224 0-0.40533 0.096-0.18133 0.096-0.31467 0.256-0.128 0.15467-0.19733 0.35733-0.069333 0.20267-0.069333 0.416 0 0.224 0.08 0.42667 0.08 0.20267 0.21867 0.35733 0.13867 0.14933 0.32533 0.24 0.192 0.09067 0.41067 0.09067z"/><path d="m8.6578 70.405q-0.304 0-0.56-0.112-0.25067-0.11733-0.43733-0.31467-0.18667-0.20267-0.29333-0.464-0.10133-0.26133-0.10133-0.56 0-0.29333 0.10133-0.54933 0.10667-0.26133 0.288-0.45333 0.18667-0.19733 0.44267-0.30933 0.256-0.11733 0.55467-0.11733 0.304 0 0.55467 0.11733 0.256 0.112 0.43733 0.30933 0.18133 0.19733 0.28267 0.45333 0.10133 0.256 0.10133 0.544 0 0.04267 0 0.08533 0 0.04267-0.0053 0.05867h-2.3787q0.016 0.224 0.10133 0.416 0.090667 0.18667 0.22933 0.32533 0.13867 0.13867 0.31467 0.21867 0.18133 0.07467 0.384 0.07467 0.13333 0 0.26667-0.03733 0.13333-0.03733 0.24533-0.10133 0.112-0.064 0.20267-0.15467 0.090667-0.096 0.13867-0.208l0.31467 0.08533q-0.064 0.15467-0.18133 0.28267-0.11733 0.12267-0.272 0.21867-0.15467 0.09067-0.34133 0.13867-0.18667 0.05333-0.38933 0.05333zm1.024-1.5893q-0.016-0.224-0.10667-0.40533-0.085333-0.18667-0.224-0.32-0.13333-0.13333-0.31467-0.208-0.176-0.07467-0.37867-0.07467-0.20267 0-0.384 0.07467-0.18133 0.07467-0.32 0.208-0.13333 0.13333-0.21867 0.32-0.08 0.18667-0.096 0.40533z"/><path d="m14.327 70.352h-0.36267v-1.552q0-0.48533-0.15467-0.71467-0.15467-0.22933-0.45867-0.22933-0.16 0-0.304 0.05867-0.13867 0.05867-0.26133 0.16533-0.11733 0.10667-0.208 0.256-0.09067 0.144-0.13867 0.32v1.696h-0.36267v-1.552q0-0.496-0.14933-0.72-0.14933-0.224-0.45867-0.224-0.31467 0-0.56 0.21867t-0.352 0.576v1.7013h-0.36267v-2.7787h0.33067v0.62933q0.17067-0.32 0.448-0.496 0.27733-0.18133 0.61333-0.18133 0.352 0 0.56 0.19733 0.21333 0.19733 0.26133 0.51733 0.38933-0.71467 1.072-0.71467 0.23467 0 0.39467 0.08533 0.16533 0.08533 0.26133 0.24533 0.10133 0.15467 0.144 0.37867 0.048 0.21867 0.048 0.49067z"/><path d="m14.7 70.352v-2.7787h0.36267v2.7787zm0-3.36v-0.53333h0.36267v0.53333z"/><path d="m15.274 68.954q0-0.29333 0.10133-0.55467 0.10133-0.26133 0.28267-0.45333 0.18667-0.19733 0.44267-0.30933t0.56533-0.112q0.39467 0 0.688 0.18133 0.29333 0.176 0.44267 0.48l-0.352 0.112q-0.11733-0.21333-0.33067-0.33067-0.208-0.12267-0.464-0.12267-0.21333 0-0.4 0.08533-0.18133 0.08533-0.32 0.23467-0.13333 0.144-0.21333 0.34667-0.07467 0.20267-0.07467 0.44267 0 0.23467 0.08 0.44267t0.21867 0.36267q0.13867 0.14933 0.32 0.24 0.18667 0.08533 0.39467 0.08533 0.13333 0 0.26133-0.03733 0.13333-0.03733 0.24533-0.10133 0.112-0.06933 0.192-0.15467 0.08-0.08533 0.112-0.18133l0.35733 0.10667q-0.05867 0.14933-0.17067 0.27733-0.112 0.12267-0.26667 0.21867-0.14933 0.09067-0.336 0.13867-0.18133 0.05333-0.37867 0.05333-0.304 0-0.56-0.112-0.256-0.11733-0.44267-0.31467-0.18667-0.20267-0.29333-0.464-0.10133-0.26133-0.10133-0.56z"/><path d="m19.032 70.352v-3.7867h1.6q0.24533 0 0.448 0.10667 0.208 0.10133 0.35733 0.272 0.14933 0.16533 0.22933 0.37867 0.08533 0.21333 0.08533 0.432 0 0.208-0.064 0.4-0.05867 0.18667-0.17067 0.34133-0.10667 0.14933-0.26133 0.256-0.15467 0.10133-0.34667 0.13867l0.928 1.4613h-0.42133l-0.89067-1.3973h-1.12v1.3973zm0.37333-1.728h1.2373q0.16533 0 0.29867-0.06933 0.13867-0.07467 0.23467-0.19733 0.096-0.12267 0.14933-0.27733 0.05333-0.15467 0.05333-0.32533t-0.064-0.32533q-0.05867-0.16-0.16533-0.27733-0.10133-0.11733-0.24533-0.18667-0.13867-0.06933-0.29333-0.06933h-1.2053z"/><path d="m23.154 70.405q-0.304 0-0.56-0.112-0.25067-0.11733-0.43733-0.31467-0.18667-0.20267-0.29333-0.464-0.10133-0.26133-0.10133-0.56 0-0.29333 0.10133-0.54933 0.10667-0.26133 0.288-0.45333 0.18667-0.19733 0.44267-0.30933 0.256-0.11733 0.55467-0.11733 0.304 0 0.55467 0.11733 0.256 0.112 0.43733 0.30933 0.18133 0.19733 0.28267 0.45333 0.10133 0.256 0.10133 0.544 0 0.04267 0 0.08533 0 0.04267-0.0053 0.05867h-2.3787q0.016 0.224 0.10133 0.416 0.09067 0.18667 0.22933 0.32533 0.13867 0.13867 0.31467 0.21867 0.18133 0.07467 0.384 0.07467 0.13333 0 0.26667-0.03733t0.24533-0.10133q0.112-0.064 0.20267-0.15467 0.09067-0.096 0.13867-0.208l0.31467 0.08533q-0.064 0.15467-0.18133 0.28267-0.11733 0.12267-0.272 0.21867-0.15467 0.09067-0.34133 0.13867-0.18667 0.05333-0.38933 0.05333zm1.024-1.5893q-0.016-0.224-0.10667-0.40533-0.08533-0.18667-0.224-0.32-0.13333-0.13333-0.31467-0.208-0.176-0.07467-0.37867-0.07467-0.20267 0-0.384 0.07467-0.18133 0.07467-0.32 0.208-0.13333 0.13333-0.21867 0.32-0.08 0.18667-0.096 0.40533z"/><path d="m25.612 70.405q-0.32533 0-0.63467-0.10667-0.30933-0.10667-0.53333-0.30933l0.16533-0.24533q0.23467 0.192 0.47467 0.288 0.24533 0.096 0.52267 0.096 0.336 0 0.53333-0.13333 0.20267-0.13867 0.20267-0.38933 0-0.11733-0.05333-0.192-0.05333-0.08-0.16-0.13867-0.10133-0.05867-0.26133-0.10133-0.15467-0.048-0.36267-0.096-0.24-0.05867-0.416-0.11733-0.176-0.05867-0.29333-0.13333-0.112-0.07467-0.17067-0.18133-0.05333-0.112-0.05333-0.27733 0-0.208 0.08-0.368 0.08533-0.16 0.224-0.26133 0.144-0.10667 0.33067-0.16 0.192-0.05333 0.40533-0.05333 0.32 0 0.58133 0.10667 0.26133 0.10133 0.42133 0.272l-0.176 0.21333q-0.15467-0.16-0.37867-0.24-0.21867-0.08-0.45867-0.08-0.144 0-0.26667 0.032-0.12267 0.02667-0.21867 0.09067-0.09067 0.064-0.144 0.16533-0.05333 0.096-0.05333 0.22933 0 0.112 0.03733 0.18133 0.03733 0.06933 0.12267 0.12267 0.08533 0.048 0.21333 0.09067 0.13333 0.03733 0.32 0.08 0.26667 0.064 0.46933 0.128 0.20267 0.064 0.336 0.14933 0.13867 0.08533 0.208 0.208 0.06933 0.12267 0.06933 0.29867 0 0.384-0.29333 0.608-0.29333 0.224-0.78933 0.224z"/><path d="m28.083 70.405q-0.304 0-0.56-0.112-0.25067-0.11733-0.43733-0.31467-0.18667-0.20267-0.29333-0.464-0.10133-0.26133-0.10133-0.56 0-0.29333 0.10133-0.54933 0.10667-0.26133 0.288-0.45333 0.18667-0.19733 0.44267-0.30933 0.256-0.11733 0.55467-0.11733 0.304 0 0.55467 0.11733 0.256 0.112 0.43733 0.30933 0.18133 0.19733 0.28267 0.45333 0.10133 0.256 0.10133 0.544 0 0.04267 0 0.08533 0 0.04267-0.0053 0.05867h-2.3787q0.016 0.224 0.10133 0.416 0.09067 0.18667 0.22933 0.32533 0.13867 0.13867 0.31467 0.21867 0.18133 0.07467 0.384 0.07467 0.13333 0 0.26667-0.03733 0.13333-0.03733 0.24533-0.10133 0.112-0.064 0.20267-0.15467 0.09067-0.096 0.13867-0.208l0.31467 0.08533q-0.064 0.15467-0.18133 0.28267-0.11733 0.12267-0.272 0.21867-0.15467 0.09067-0.34133 0.13867-0.18667 0.05333-0.38933 0.05333zm1.024-1.5893q-0.016-0.224-0.10667-0.40533-0.08533-0.18667-0.224-0.32-0.13333-0.13333-0.31467-0.208-0.176-0.07467-0.37867-0.07467t-0.384 0.07467-0.32 0.208q-0.13333 0.13333-0.21867 0.32-0.08 0.18667-0.096 0.40533z"/><path d="m30.317 70.405q-0.19733 0-0.368-0.064-0.16533-0.06933-0.29333-0.18667-0.12267-0.11733-0.192-0.272-0.06933-0.16-0.06933-0.34133 0-0.18133 0.08533-0.336 0.08533-0.15467 0.24-0.26667 0.15467-0.112 0.368-0.17067 0.21333-0.064 0.46933-0.064 0.21333 0 0.432 0.03733t0.38933 0.10667v-0.25067q0-0.368-0.208-0.58133-0.208-0.21867-0.576-0.21867-0.21333 0-0.43733 0.08533t-0.45333 0.24533l-0.128-0.24q0.53867-0.36267 1.0453-0.36267 0.52267 0 0.82133 0.29333 0.29867 0.29333 0.29867 0.81067v1.2533q0 0.14933 0.13333 0.14933v0.32q-0.09067 0.016-0.13867 0.016-0.13867 0-0.21867-0.06933-0.07467-0.06933-0.08-0.192l-0.01067-0.21867q-0.192 0.25067-0.48533 0.384-0.288 0.13333-0.624 0.13333zm0.08533-0.27733q0.28267 0 0.51733-0.10667 0.24-0.10667 0.36267-0.28267 0.048-0.048 0.06933-0.10133 0.02667-0.05867 0.02667-0.10667v-0.45333q-0.18133-0.06933-0.37867-0.10667-0.192-0.03733-0.39467-0.03733-0.384 0-0.624 0.16t-0.24 0.42133q0 0.128 0.048 0.24 0.05333 0.112 0.13867 0.19733 0.09067 0.08 0.21333 0.128 0.12267 0.048 0.26133 0.048z"/><path d="m33.511 67.893q-0.368 0.01067-0.64 0.20267-0.272 0.192-0.384 0.528v1.728h-0.36267v-2.7787h0.34133v0.66667q0.15467-0.32 0.416-0.50133t0.56-0.18133q0.04267 0 0.06933 0.0053z"/><path d="m33.272 68.954q0-0.29333 0.10133-0.55467 0.10133-0.26133 0.28267-0.45333 0.18667-0.19733 0.44267-0.30933t0.56533-0.112q0.39467 0 0.688 0.18133 0.29333 0.176 0.44267 0.48l-0.352 0.112q-0.11733-0.21333-0.33067-0.33067-0.208-0.12267-0.464-0.12267-0.21333 0-0.4 0.08533-0.18133 0.08533-0.32 0.23467-0.13333 0.144-0.21333 0.34667-0.07467 0.20267-0.07467 0.44267 0 0.23467 0.08 0.44267t0.21867 0.36267q0.13867 0.14933 0.32 0.24 0.18667 0.08533 0.39467 0.08533 0.13333 0 0.26133-0.03733 0.13333-0.03733 0.24533-0.10133 0.112-0.06933 0.192-0.15467 0.08-0.08533 0.112-0.18133l0.35733 0.10667q-0.05867 0.14933-0.17067 0.27733-0.112 0.12267-0.26667 0.21867-0.14933 0.09067-0.336 0.13867-0.18133 0.05333-0.37867 0.05333-0.304 0-0.56-0.112-0.256-0.11733-0.44267-0.31467-0.18667-0.20267-0.29333-0.464-0.10133-0.26133-0.10133-0.56z"/><path d="m38.327 70.352h-0.36267v-1.552q0-0.47467-0.16533-0.70933-0.16-0.23467-0.47467-0.23467-0.15467 0-0.30933 0.064-0.14933 0.05867-0.28267 0.16533-0.13333 0.10667-0.23467 0.25067-0.096 0.144-0.144 0.31467v1.7013h-0.36267v-3.8933h0.36267v1.744q0.16533-0.31467 0.45867-0.496t0.63467-0.18133q0.24 0 0.40533 0.09067 0.16533 0.08533 0.272 0.24533 0.10667 0.15467 0.15467 0.37867 0.048 0.21867 0.048 0.48533z"/><path d="m40.118 67.258v3.0933h-0.37333v-3.7867h0.288l2.5067 3.152v-3.1467h0.37333v3.7813h-0.32533z"/><path d="m44.543 70.405q-0.304 0-0.56-0.112-0.25067-0.11733-0.43733-0.31467-0.18667-0.20267-0.29333-0.464-0.10133-0.26133-0.10133-0.56 0-0.29333 0.10133-0.54933 0.10667-0.26133 0.288-0.45333 0.18667-0.19733 0.44267-0.30933 0.256-0.11733 0.55467-0.11733 0.304 0 0.55467 0.11733 0.256 0.112 0.43733 0.30933 0.18133 0.19733 0.28267 0.45333 0.10133 0.256 0.10133 0.544 0 0.04267 0 0.08533 0 0.04267-0.0053 0.05867h-2.3787q0.016 0.224 0.10133 0.416 0.09067 0.18667 0.22933 0.32533 0.13867 0.13867 0.31467 0.21867 0.18133 0.07467 0.384 0.07467 0.13333 0 0.26667-0.03733 0.13333-0.03733 0.24533-0.10133 0.112-0.064 0.20267-0.15467 0.09067-0.096 0.13867-0.208l0.31467 0.08533q-0.064 0.15467-0.18133 0.28267-0.11733 0.12267-0.272 0.21867-0.15467 0.09067-0.34133 0.13867-0.18667 0.05333-0.38933 0.05333zm1.024-1.5893q-0.016-0.224-0.10667-0.40533-0.08533-0.18667-0.224-0.32-0.13333-0.13333-0.31467-0.208-0.176-0.07467-0.37867-0.07467-0.20267 0-0.384 0.07467-0.18133 0.07467-0.32 0.208-0.13333 0.13333-0.21867 0.32-0.08 0.18667-0.096 0.40533z"/><path d="m47.391 70.218q-0.032 0.016-0.096 0.04267-0.05867 0.02667-0.13867 0.05333-0.08 0.02667-0.18133 0.048-0.10133 0.02133-0.21333 0.02133-0.11733 0-0.224-0.032t-0.18667-0.096q-0.08-0.06933-0.128-0.17067-0.048-0.10133-0.048-0.23467v-1.9893h-0.384v-0.288h0.384v-0.93867h0.36267v0.93867h0.64v0.288h-0.64v1.888q0.01067 0.15467 0.10667 0.22933 0.10133 0.06933 0.22933 0.06933 0.15467 0 0.272-0.048 0.11733-0.05333 0.14933-0.07467z"/><path d="m50.948 67.573h0.35733l-1.1947 2.7787h-0.29867l-0.59733-1.4187-0.592 1.4187h-0.29867l-1.1947-2.7787h0.352l1.0133 2.4053 0.528-1.2693-0.47467-1.1307h0.304l0.36267 0.90667 0.36267-0.90667h0.30933l-0.47467 1.1307 0.528 1.2693z"/><path d="m52.463 70.405q-0.304 0-0.55467-0.112-0.25067-0.11733-0.43733-0.31467-0.18133-0.19733-0.28267-0.45867-0.10133-0.26133-0.10133-0.54933 0-0.29333 0.10133-0.55467 0.10667-0.26133 0.288-0.45867 0.18667-0.19733 0.43733-0.31467 0.25067-0.11733 0.54933-0.11733 0.29867 0 0.54933 0.11733 0.256 0.11733 0.43733 0.31467 0.18667 0.19733 0.288 0.45867 0.10667 0.26133 0.10667 0.55467 0 0.288-0.10133 0.54933-0.10133 0.26133-0.288 0.45867-0.18133 0.19733-0.43733 0.31467-0.25067 0.112-0.55467 0.112zm-1.008-1.4293q0 0.23467 0.08 0.43733 0.08 0.19733 0.21333 0.352 0.13867 0.14933 0.32 0.23467 0.18667 0.08533 0.39467 0.08533t0.38933-0.08533q0.18667-0.09067 0.32533-0.24 0.13867-0.15467 0.21867-0.35733t0.08-0.43733q0-0.22933-0.08-0.432-0.08-0.208-0.21867-0.35733-0.13867-0.15467-0.32533-0.24-0.18133-0.09067-0.38933-0.09067t-0.38933 0.09067q-0.18133 0.08533-0.32 0.24-0.13867 0.15467-0.21867 0.36267-0.08 0.20267-0.08 0.43733z"/><path d="m55.442 67.893q-0.368 0.01067-0.64 0.20267-0.272 0.192-0.384 0.528v1.728h-0.36267v-2.7787h0.34133v0.66667q0.15467-0.32 0.416-0.50133 0.26133-0.18133 0.56-0.18133 0.04267 0 0.06933 0.0053z"/><path d="m57.515 70.352-1.024-1.424-0.59733 0.55467v0.86933h-0.36267v-3.8933h0.36267v2.6453l1.5627-1.5253h0.41067l-1.136 1.136 1.1787 1.6373z"/></g>
</g><flowRoot transform="translate(24 19)" fill="#000000" font-family="Raleway" font-size="16px" letter-spacing="0px" word-spacing="0px" style="line-height:1.25" xml:space="preserve"><flowRegion><rect x="-11.547" y="-291.1" width="95.551" height="384.85"/></flowRegion><flowPara/></flowRoot></svg>
