<?xml version="1.0" encoding="UTF-8" standalone="no"?>
<svg
   xmlns:dc="http://purl.org/dc/elements/1.1/"
   xmlns:cc="http://creativecommons.org/ns#"
   xmlns:rdf="http://www.w3.org/1999/02/22-rdf-syntax-ns#"
   xmlns:svg="http://www.w3.org/2000/svg"
   xmlns="http://www.w3.org/2000/svg"
   xmlns:sodipodi="http://sodipodi.sourceforge.net/DTD/sodipodi-0.dtd"
   xmlns:inkscape="http://www.inkscape.org/namespaces/inkscape"
   version="1.1"
   x="0px"
   y="0px"
   viewBox="0 0 91.630884 91.630884"
   enable-background="new 0 0 40 40"
   xml:space="preserve"
   id="svg8"
   width="91.630882"
   height="91.630882"
   sodipodi:docname="logo.svg"
   inkscape:export-filename="/home/bob/Bureau/test/test.png"
   inkscape:export-xdpi="1.2095238"
   inkscape:export-ydpi="1.2095238"
   inkscape:version="0.92.3 (2405546, 2018-03-11)"><sodipodi:namedview
     pagecolor="#ffffff"
     bordercolor="#666666"
     borderopacity="1"
     objecttolerance="10"
     gridtolerance="10"
     guidetolerance="10"
     inkscape:pageopacity="0"
     inkscape:pageshadow="2"
     inkscape:window-width="2493"
     inkscape:window-height="1376"
     id="namedview831"
     showgrid="false"
     inkscape:zoom="12.965061"
     inkscape:cx="45.815441"
     inkscape:cy="45.815441"
     inkscape:window-x="0"
     inkscape:window-y="27"
     inkscape:window-maximized="1"
     inkscape:current-layer="svg8" /><metadata
     id="metadata14"><rdf:RDF><cc:Work
         rdf:about=""><dc:format>image/svg+xml</dc:format><dc:type
           rdf:resource="http://purl.org/dc/dcmitype/StillImage" /><dc:title /></cc:Work></rdf:RDF></metadata><defs
     id="defs12">



</defs><rect
     style="fill:#ffffff;fill-opacity:1;stroke:#333333;stroke-width:0.66529363;stroke-miterlimit:4;stroke-dasharray:none;stroke-opacity:1"
     id="rect839"
     width="90.965591"
     height="90.965591"
     x="0.33264542"
     y="0.33264682" /><g
     transform="matrix(0.99087107,0,0,0.99087107,25.99802,-5.7835553)"
     id="g895"><circle
       style="fill:#333333;fill-opacity:1;stroke:none;stroke-width:0.88307303;stroke-miterlimit:4;stroke-dasharray:none;stroke-opacity:1"
       id="path891"
       cx="20"
       cy="35.981575"
       r="17.661228" /><path
       id="path2"
       d="m 20,19.539574 c -9.065,0 -16.4410003,7.376 -16.4410003,16.442 0,9.066 7.3760003,16.442 16.4410003,16.442 9.065,0 16.441,-7.376 16.441,-16.442 0,-9.066 -7.376,-16.442 -16.441,-16.442 z m 11.214,27.025 c -0.038,-10e-4 -0.076,-0.008 -0.115,0 -0.16,0.032 -0.29,0.028 -0.347,-0.012 -0.729,-0.51 -0.699,-0.695 -0.612,-1.244 0.053,-0.331 0.118,-0.741 0.035,-1.275 -0.165,-1.064 -0.166,-1.696 1.738,-2.325 0.909,-0.301 1.415,-0.718 1.548,-1.276 0.198,-0.835 -0.549,-1.583 -1.043,-2.079 -0.115,-0.114 -0.141,-0.173 -0.145,-0.173 0.01,-0.042 0.076,-0.149 0.125,-0.228 0.156,-0.25 0.392,-0.628 0.41,-1.191 0.015,-0.432 -0.108,-0.76 -0.366,-0.975 -0.472,-0.396 -1.166,-0.245 -1.97,-0.071 l -0.391,0.082 c -0.798,0.161 -1.055,0.013 -1.114,-0.036 -0.024,-0.02 -0.088,-0.072 -0.089,-0.269 0,-0.95 -0.223,-1.657 -1.441,-2.887 -0.862,-0.871 -0.746,-1.21 -0.36,-2.333 l 0.115,-0.336 c 0.345,-1.036 1.853,-1.137 2.559,-0.9 0.79,0.264 1.17,-0.239 1.352,-0.482 0.038,-0.05 0.095,-0.126 0.081,-0.132 10e-4,0 0.034,0 0.113,0.036 0.256,0.112 0.524,0.114 0.778,0 0.31,-0.136 0.582,-0.455 0.832,-0.931 1.598,2.431 2.534,5.333 2.534,8.453 0,4.098 -1.614,7.817 -4.227,10.584 z m -17.255,-24.792 c -0.006,0.088 -0.009,0.177 0.007,0.263 0.076,0.417 0.382,0.754 0.907,1.001 1.362,0.64 2.878,0.611 3.889,0.593 0.153,-0.003 0.318,-0.004 0.476,-0.005 -0.213,0.09 -0.494,0.167 -0.755,0.239 -0.896,0.246 -2.01,0.551 -2.323,1.701 -0.357,1.31 -0.761,1.265 -1.554,1.061 -0.236,-0.062 -0.52,-0.21 -0.793,-0.354 -0.572,-0.301 -1.222,-0.645 -1.843,-0.383 -0.412,0.172 -0.705,0.562 -0.896,1.192 -0.199,0.654 -0.475,0.755 -0.767,0.862 -0.217,0.079 -0.5130003,0.187 -0.6550003,0.514 -0.152,0.346 -0.046,0.746 0.16,1.241 0.6860003,1.646 1.3880003,3.351 3.3800003,2.986 0.565,-0.103 0.958,-0.297 1.244,-0.439 0.48,-0.239 0.565,-0.28 1.275,0.479 l 0.259,0.279 c 1.314,1.417 2.362,2.54 4.148,2.383 1.119,-0.094 2.879,0.397 3.328,1.108 0.091,0.144 0.17,0.352 -0.026,0.688 -0.465,0.795 -1.479,1.614 -2.374,2.337 -0.962,0.776 -1.792,1.446 -2.045,2.122 -0.197,0.525 -0.904,1.148 -1.473,1.649 -0.542,0.478 -1.01,0.89 -1.186,1.299 -0.306,0.713 0.115,1.152 0.452,1.503 0.22,0.229 0.468,0.487 0.707,0.929 -0.035,0.045 -0.241,0.146 -0.624,0.146 -0.562,0 -1.299,-0.219 -1.68,-0.71 -0.911,-1.171 -0.844,-3.024 -0.478,-4.368 0.494,-1.817 -0.201,-3.448 -1.814,-4.254 -0.835,-0.417 -1.228,-2.588 -1.278,-3.858 -0.003,-0.066 -0.019,-0.132 -0.047,-0.192 -0.021,-0.044 -0.521,-1.088 -1.7510003,-1.863 -0.35,-0.221 -0.544,-0.792 -0.73,-1.344 -0.283,-0.834 -0.636,-1.873 -1.739,-1.983 -0.148,-0.015 -0.385,-0.087 -0.723,-0.313 1.67,-2.887 4.2330003,-5.191 7.3220003,-6.509 z m -9.4000003,14.209 c 0,-2.45 0.589,-4.76 1.608,-6.82 0.389,0.247 0.751,0.391 1.094,0.425 0.417,0.042 0.601,0.451 0.892,1.309 0.231,0.684 0.494,1.458 1.145,1.868 0.7980003,0.502 1.2120003,1.147 1.3370003,1.365 0.04,0.728 0.301,3.834 1.825,4.597 1.179,0.589 1.664,1.748 1.297,3.097 -0.43,1.577 -0.484,3.783 0.653,5.245 0.568,0.731 1.588,1.099 2.463,1.099 0.437,0 0.838,-0.091 1.128,-0.274 0.479,-0.302 0.621,-0.833 0.361,-1.355 -0.272,-0.543 -0.603,-0.888 -0.845,-1.14 -0.3,-0.313 -0.294,-0.325 -0.254,-0.418 0.086,-0.202 0.552,-0.613 0.927,-0.942 0.686,-0.604 1.463,-1.289 1.747,-2.049 0.157,-0.419 0.961,-1.067 1.737,-1.694 0.962,-0.776 2.053,-1.657 2.609,-2.611 0.341,-0.583 0.344,-1.196 0.009,-1.726 -0.746,-1.181 -2.987,-1.677 -4.259,-1.57 -1.32,0.117 -2.113,-0.755 -3.33,-2.067 l -0.262,-0.281 c -1.048,-1.122 -1.581,-1.125 -2.45,-0.692 -0.259,0.128 -0.552,0.274 -0.979,0.352 -1.076,0.199 -1.506,-0.536 -2.276,-2.387 -0.087,-0.207 -0.125,-0.335 -0.142,-0.41 0.019,-0.007 0.038,-0.014 0.056,-0.021 0.362,-0.132 1.037,-0.378 1.381,-1.51 0.093,-0.305 0.214,-0.514 0.324,-0.56 0.188,-0.079 0.635,0.157 0.992,0.345 0.324,0.17 0.658,0.347 1.008,0.437 1.513,0.396 2.32,-0.118 2.77,-1.766 0.152,-0.558 0.741,-0.758 1.622,-1 0.722,-0.197 1.467,-0.402 1.748,-1.056 0.151,-0.354 0.063,-0.606 -0.037,-0.755 -0.278,-0.414 -0.853,-0.403 -1.715,-0.386 -0.966,0.019 -2.292,0.043 -3.443,-0.498 -0.241,-0.114 -0.339,-0.22 -0.349,-0.276 -0.012,-0.06 0.042,-0.234 0.312,-0.512 0.021,-0.021 0.029,-0.047 0.045,-0.071 1.48,-0.473 3.055,-0.734 4.692,-0.734 4.984,0 9.412,2.384 12.237,6.061 -0.268,0.695 -0.497,0.922 -0.536,0.944 -0.822,-0.361 -1.226,0.181 -1.398,0.412 -0.043,0.056 -0.106,0.141 -0.126,0.154 0,-0.001 -0.032,0.004 -0.109,-0.022 -1.22,-0.405 -3.281,-0.093 -3.824,1.533 l -0.111,0.328 c -0.409,1.19 -0.704,2.05 0.595,3.362 1.152,1.163 1.152,1.635 1.152,2.185 0.001,0.554 0.249,0.873 0.456,1.042 0.419,0.342 1.053,0.421 1.944,0.242 l 0.404,-0.085 c 0.393,-0.084 0.986,-0.212 1.105,-0.153 10e-4,0 0.024,0.046 0.02,0.187 -0.01,0.296 -0.125,0.482 -0.259,0.697 -0.212,0.341 -0.566,0.911 0.161,1.637 0.274,0.275 0.847,0.848 0.777,1.14 -0.017,0.067 -0.128,0.307 -0.889,0.559 -2.344,0.773 -2.659,1.842 -2.413,3.427 0.059,0.378 0.012,0.676 -0.034,0.964 -0.126,0.791 -0.126,1.413 1.025,2.22 0.042,0.029 0.093,0.042 0.138,0.066 -2.737,2.468 -6.349,3.984 -10.315,3.984 -8.515,0 -15.4410003,-6.927 -15.4410003,-15.442 z"
       style="fill:#ffffff" /></g><g
     transform="matrix(0.91132413,0,0,0.91132413,27.588959,17.799119)"
     id="text823"
     style="font-style:normal;font-variant:normal;font-weight:normal;font-stretch:normal;font-size:16.93636513px;line-height:1.25;font-family:Oswald;-inkscape-font-specification:Oswald;letter-spacing:0px;word-spacing:0px;fill:#333333;fill-opacity:1;stroke:none;stroke-width:0.39694604"
     aria-label="WPRN"><path
       id="path1564"
       style="font-style:normal;font-variant:normal;font-weight:normal;font-stretch:normal;font-size:30.66666603px;font-family:'Poiret One';-inkscape-font-specification:'Poiret One';fill:#333333;fill-opacity:1;stroke-width:0.39694604"
       d="M -7.5741242,63.295323 -17.663457,39.896657 h 1.134666 l 9.1080002,21.067999 4.2626665,-9.966666 -4.7533332,-11.101333 h 1.104 L -2.5447909,49.98599 1.8405423,39.896657 H 2.6992089 L -2.084791,50.967323 2.2698756,61.056656 11.561875,39.896657 h 0.828 l -10.2119994,23.398666 -4.8759999,-11.224 z" /><path
       id="path1566"
       style="font-style:normal;font-variant:normal;font-weight:normal;font-stretch:normal;font-size:30.66666603px;font-family:'Poiret One';-inkscape-font-specification:'Poiret One';fill:#333333;fill-opacity:1;stroke-width:0.39694604"
       d="m 15.377959,39.896657 h 1.012 q 3.189333,0 5.428,2.207999 2.238666,2.177334 2.238666,5.152 0,2.974667 -2.330666,5.121334 -2.3,2.146666 -5.090667,2.146666 h -0.245333 v 8.372 h -1.012 z m 1.012,13.769333 h 0.245333 q 2.576,0 4.477333,-1.901334 1.932,-1.901333 1.932,-4.508 0,-2.606666 -1.962666,-4.538666 -1.932,-1.932 -4.446667,-1.932 h -0.245333 z" /><path
       id="path1568"
       style="font-style:normal;font-variant:normal;font-weight:normal;font-stretch:normal;font-size:30.66666603px;font-family:'Poiret One';-inkscape-font-specification:'Poiret One';fill:#333333;fill-opacity:1;stroke-width:0.39694604"
       d="m 27.387791,39.896657 h 1.318667 q 2.974667,0 5.213333,2.207999 2.269334,2.177334 2.269334,5.152 0,2.944 -2.3,5.121334 -2.3,2.177333 -4.937334,2.177333 h -0.214666 l 7.912,8.341333 H 35.330458 L 28.369125,55.59799 v 7.298666 h -0.981334 z m 0.981334,13.769333 h 0.552 q 2.484,0 4.385333,-1.901334 1.901333,-1.901333 1.901333,-4.508 0,-2.606666 -1.962666,-4.538666 -1.962667,-1.932 -4.477334,-1.932 h -0.398666 z" /><path
       id="path1570"
       style="font-style:normal;font-variant:normal;font-weight:normal;font-stretch:normal;font-size:30.66666603px;font-family:'Poiret One';-inkscape-font-specification:'Poiret One';fill:#333333;fill-opacity:1;stroke-width:0.39694604"
       d="m 56.774123,39.896657 h 0.889333 V 63.233989 L 40.735457,42.411323 V 62.896656 H 39.846123 V 39.559323 l 16.928,20.792 z" /></g><flowRoot
     xml:space="preserve"
     id="flowRoot831"
     style="font-style:normal;font-variant:normal;font-weight:normal;font-stretch:normal;font-size:16px;line-height:1.25;font-family:Raleway;-inkscape-font-specification:Raleway;letter-spacing:0px;word-spacing:0px;fill:#000000;fill-opacity:1;stroke:none"
     transform="translate(25.815443,20.201766)"><flowRegion
       id="flowRegion833"><rect
         id="rect835"
         width="95.55085"
         height="384.85168"
         x="-11.54661"
         y="-291.10168" /></flowRegion><flowPara
       id="flowPara837" /></flowRoot></svg>