<?xml version="1.0" encoding="UTF-8" standalone="no"?>
<svg
   xmlns:dc="http://purl.org/dc/elements/1.1/"
   xmlns:cc="http://creativecommons.org/ns#"
   xmlns:rdf="http://www.w3.org/1999/02/22-rdf-syntax-ns#"
   xmlns:svg="http://www.w3.org/2000/svg"
   xmlns="http://www.w3.org/2000/svg"
   xmlns:sodipodi="http://sodipodi.sourceforge.net/DTD/sodipodi-0.dtd"
   xmlns:inkscape="http://www.inkscape.org/namespaces/inkscape"
   height="2024.101"
   width="2190.4136"
   id="svg8"
   xml:space="preserve"
   enable-background="new 0 0 40 40"
   viewBox="0 0 2190.4136 2024.101"
   y="0px"
   x="0px"
   version="1.1"
   sodipodi:docname="logo.svg"
   inkscape:export-filename="/home/bob/logo_alt.png"
   inkscape:export-xdpi="22"
   inkscape:export-ydpi="22"
   inkscape:version="0.92.3 (2405546, 2018-03-11)"><sodipodi:namedview
     pagecolor="#ffffff"
     bordercolor="#666666"
     borderopacity="1"
     objecttolerance="10"
     gridtolerance="10"
     guidetolerance="10"
     inkscape:pageopacity="1"
     inkscape:pageshadow="2"
     inkscape:window-width="2493"
     inkscape:window-height="1376"
     id="namedview861"
     showgrid="false"
     fit-margin-top="0"
     fit-margin-left="0"
     fit-margin-right="0"
     fit-margin-bottom="0"
     inkscape:zoom="0.29666054"
     inkscape:cx="-133.31462"
     inkscape:cy="883.76212"
     inkscape:window-x="0"
     inkscape:window-y="27"
     inkscape:window-maximized="1"
     inkscape:current-layer="svg8" /><metadata
     id="metadata14"><rdf:RDF><cc:Work
         rdf:about=""><dc:format>image/svg+xml</dc:format><dc:type
           rdf:resource="http://purl.org/dc/dcmitype/StillImage" /><dc:title></dc:title></cc:Work></rdf:RDF></metadata><defs
     id="defs12" /><g
     id="g901"
     transform="matrix(4.0312573,0,0,4.0312573,131.32171,121.3508)"><g
       id="g846"
       transform="matrix(6.3072146,0,0,6.3072146,112.95855,-2.1637268)"><g
   id="g895"
   transform="translate(-3.6401367e-7,-17.977291)"><circle
     r="17.661228"
     cy="35.981575"
     cx="20"
     id="path891"
     style="fill:#333333;fill-opacity:1;stroke:none;stroke-width:0.88307303;stroke-miterlimit:4;stroke-dasharray:none;stroke-opacity:1" /><path
     inkscape:connector-curvature="0"
     style="fill:#ffffff"
     d="m 20,19.539574 c -9.065,0 -16.4410003,7.376 -16.4410003,16.442 0,9.066 7.3760003,16.442 16.4410003,16.442 9.065,0 16.441,-7.376 16.441,-16.442 0,-9.066 -7.376,-16.442 -16.441,-16.442 z m 11.214,27.025 c -0.038,-10e-4 -0.076,-0.008 -0.115,0 -0.16,0.032 -0.29,0.028 -0.347,-0.012 -0.729,-0.51 -0.699,-0.695 -0.612,-1.244 0.053,-0.331 0.118,-0.741 0.035,-1.275 -0.165,-1.064 -0.166,-1.696 1.738,-2.325 0.909,-0.301 1.415,-0.718 1.548,-1.276 0.198,-0.835 -0.549,-1.583 -1.043,-2.079 -0.115,-0.114 -0.141,-0.173 -0.145,-0.173 0.01,-0.042 0.076,-0.149 0.125,-0.228 0.156,-0.25 0.392,-0.628 0.41,-1.191 0.015,-0.432 -0.108,-0.76 -0.366,-0.975 -0.472,-0.396 -1.166,-0.245 -1.97,-0.071 l -0.391,0.082 c -0.798,0.161 -1.055,0.013 -1.114,-0.036 -0.024,-0.02 -0.088,-0.072 -0.089,-0.269 0,-0.95 -0.223,-1.657 -1.441,-2.887 -0.862,-0.871 -0.746,-1.21 -0.36,-2.333 l 0.115,-0.336 c 0.345,-1.036 1.853,-1.137 2.559,-0.9 0.79,0.264 1.17,-0.239 1.352,-0.482 0.038,-0.05 0.095,-0.126 0.081,-0.132 10e-4,0 0.034,0 0.113,0.036 0.256,0.112 0.524,0.114 0.778,0 0.31,-0.136 0.582,-0.455 0.832,-0.931 1.598,2.431 2.534,5.333 2.534,8.453 0,4.098 -1.614,7.817 -4.227,10.584 z m -17.255,-24.792 c -0.006,0.088 -0.009,0.177 0.007,0.263 0.076,0.417 0.382,0.754 0.907,1.001 1.362,0.64 2.878,0.611 3.889,0.593 0.153,-0.003 0.318,-0.004 0.476,-0.005 -0.213,0.09 -0.494,0.167 -0.755,0.239 -0.896,0.246 -2.01,0.551 -2.323,1.701 -0.357,1.31 -0.761,1.265 -1.554,1.061 -0.236,-0.062 -0.52,-0.21 -0.793,-0.354 -0.572,-0.301 -1.222,-0.645 -1.843,-0.383 -0.412,0.172 -0.705,0.562 -0.896,1.192 -0.199,0.654 -0.475,0.755 -0.767,0.862 -0.217,0.079 -0.5130003,0.187 -0.6550003,0.514 -0.152,0.346 -0.046,0.746 0.16,1.241 0.6860003,1.646 1.3880003,3.351 3.3800003,2.986 0.565,-0.103 0.958,-0.297 1.244,-0.439 0.48,-0.239 0.565,-0.28 1.275,0.479 l 0.259,0.279 c 1.314,1.417 2.362,2.54 4.148,2.383 1.119,-0.094 2.879,0.397 3.328,1.108 0.091,0.144 0.17,0.352 -0.026,0.688 -0.465,0.795 -1.479,1.614 -2.374,2.337 -0.962,0.776 -1.792,1.446 -2.045,2.122 -0.197,0.525 -0.904,1.148 -1.473,1.649 -0.542,0.478 -1.01,0.89 -1.186,1.299 -0.306,0.713 0.115,1.152 0.452,1.503 0.22,0.229 0.468,0.487 0.707,0.929 -0.035,0.045 -0.241,0.146 -0.624,0.146 -0.562,0 -1.299,-0.219 -1.68,-0.71 -0.911,-1.171 -0.844,-3.024 -0.478,-4.368 0.494,-1.817 -0.201,-3.448 -1.814,-4.254 -0.835,-0.417 -1.228,-2.588 -1.278,-3.858 -0.003,-0.066 -0.019,-0.132 -0.047,-0.192 -0.021,-0.044 -0.521,-1.088 -1.7510003,-1.863 -0.35,-0.221 -0.544,-0.792 -0.73,-1.344 -0.283,-0.834 -0.636,-1.873 -1.739,-1.983 -0.148,-0.015 -0.385,-0.087 -0.723,-0.313 1.67,-2.887 4.2330003,-5.191 7.3220003,-6.509 z m -9.4000003,14.209 c 0,-2.45 0.589,-4.76 1.608,-6.82 0.389,0.247 0.751,0.391 1.094,0.425 0.417,0.042 0.601,0.451 0.892,1.309 0.231,0.684 0.494,1.458 1.145,1.868 0.7980003,0.502 1.2120003,1.147 1.3370003,1.365 0.04,0.728 0.301,3.834 1.825,4.597 1.179,0.589 1.664,1.748 1.297,3.097 -0.43,1.577 -0.484,3.783 0.653,5.245 0.568,0.731 1.588,1.099 2.463,1.099 0.437,0 0.838,-0.091 1.128,-0.274 0.479,-0.302 0.621,-0.833 0.361,-1.355 -0.272,-0.543 -0.603,-0.888 -0.845,-1.14 -0.3,-0.313 -0.294,-0.325 -0.254,-0.418 0.086,-0.202 0.552,-0.613 0.927,-0.942 0.686,-0.604 1.463,-1.289 1.747,-2.049 0.157,-0.419 0.961,-1.067 1.737,-1.694 0.962,-0.776 2.053,-1.657 2.609,-2.611 0.341,-0.583 0.344,-1.196 0.009,-1.726 -0.746,-1.181 -2.987,-1.677 -4.259,-1.57 -1.32,0.117 -2.113,-0.755 -3.33,-2.067 l -0.262,-0.281 c -1.048,-1.122 -1.581,-1.125 -2.45,-0.692 -0.259,0.128 -0.552,0.274 -0.979,0.352 -1.076,0.199 -1.506,-0.536 -2.276,-2.387 -0.087,-0.207 -0.125,-0.335 -0.142,-0.41 0.019,-0.007 0.038,-0.014 0.056,-0.021 0.362,-0.132 1.037,-0.378 1.381,-1.51 0.093,-0.305 0.214,-0.514 0.324,-0.56 0.188,-0.079 0.635,0.157 0.992,0.345 0.324,0.17 0.658,0.347 1.008,0.437 1.513,0.396 2.32,-0.118 2.77,-1.766 0.152,-0.558 0.741,-0.758 1.622,-1 0.722,-0.197 1.467,-0.402 1.748,-1.056 0.151,-0.354 0.063,-0.606 -0.037,-0.755 -0.278,-0.414 -0.853,-0.403 -1.715,-0.386 -0.966,0.019 -2.292,0.043 -3.443,-0.498 -0.241,-0.114 -0.339,-0.22 -0.349,-0.276 -0.012,-0.06 0.042,-0.234 0.312,-0.512 0.021,-0.021 0.029,-0.047 0.045,-0.071 1.48,-0.473 3.055,-0.734 4.692,-0.734 4.984,0 9.412,2.384 12.237,6.061 -0.268,0.695 -0.497,0.922 -0.536,0.944 -0.822,-0.361 -1.226,0.181 -1.398,0.412 -0.043,0.056 -0.106,0.141 -0.126,0.154 0,-0.001 -0.032,0.004 -0.109,-0.022 -1.22,-0.405 -3.281,-0.093 -3.824,1.533 l -0.111,0.328 c -0.409,1.19 -0.704,2.05 0.595,3.362 1.152,1.163 1.152,1.635 1.152,2.185 0.001,0.554 0.249,0.873 0.456,1.042 0.419,0.342 1.053,0.421 1.944,0.242 l 0.404,-0.085 c 0.393,-0.084 0.986,-0.212 1.105,-0.153 10e-4,0 0.024,0.046 0.02,0.187 -0.01,0.296 -0.125,0.482 -0.259,0.697 -0.212,0.341 -0.566,0.911 0.161,1.637 0.274,0.275 0.847,0.848 0.777,1.14 -0.017,0.067 -0.128,0.307 -0.889,0.559 -2.344,0.773 -2.659,1.842 -2.413,3.427 0.059,0.378 0.012,0.676 -0.034,0.964 -0.126,0.791 -0.126,1.413 1.025,2.22 0.042,0.029 0.093,0.042 0.138,0.066 -2.737,2.468 -6.349,3.984 -10.315,3.984 -8.515,0 -15.4410003,-6.927 -15.4410003,-15.442 z"
     id="path2" /></g><g
   aria-label="WPRN"
   style="font-style:normal;font-variant:normal;font-weight:normal;font-stretch:normal;font-size:16.93636513px;line-height:1.25;font-family:Oswald;-inkscape-font-specification:Oswald;letter-spacing:0px;word-spacing:0px;fill:#333333;fill-opacity:1;stroke:none;stroke-width:0.39694604"
   id="text823"><path
     inkscape:connector-curvature="0"
     d="M -7.5741242,63.295323 -17.663457,39.896657 h 1.134666 l 9.1080002,21.067999 4.2626665,-9.966666 -4.7533332,-11.101333 h 1.104 L -2.5447909,49.98599 1.8405423,39.896657 H 2.6992089 L -2.084791,50.967323 2.2698756,61.056656 11.561875,39.896657 h 0.828 l -10.2119994,23.398666 -4.8759999,-11.224 z"
     style="font-style:normal;font-variant:normal;font-weight:normal;font-stretch:normal;font-size:30.66666603px;font-family:'Poiret One';-inkscape-font-specification:'Poiret One';fill:#333333;fill-opacity:1;stroke-width:0.39694604"
     id="path1564" /><path
     inkscape:connector-curvature="0"
     d="m 15.377959,39.896657 h 1.012 q 3.189333,0 5.428,2.207999 2.238666,2.177334 2.238666,5.152 0,2.974667 -2.330666,5.121334 -2.3,2.146666 -5.090667,2.146666 h -0.245333 v 8.372 h -1.012 z m 1.012,13.769333 h 0.245333 q 2.576,0 4.477333,-1.901334 1.932,-1.901333 1.932,-4.508 0,-2.606666 -1.962666,-4.538666 -1.932,-1.932 -4.446667,-1.932 h -0.245333 z"
     style="font-style:normal;font-variant:normal;font-weight:normal;font-stretch:normal;font-size:30.66666603px;font-family:'Poiret One';-inkscape-font-specification:'Poiret One';fill:#333333;fill-opacity:1;stroke-width:0.39694604"
     id="path1566" /><path
     inkscape:connector-curvature="0"
     d="m 27.387791,39.896657 h 1.318667 q 2.974667,0 5.213333,2.207999 2.269334,2.177334 2.269334,5.152 0,2.944 -2.3,5.121334 -2.3,2.177333 -4.937334,2.177333 h -0.214666 l 7.912,8.341333 H 35.330458 L 28.369125,55.59799 v 7.298666 h -0.981334 z m 0.981334,13.769333 h 0.552 q 2.484,0 4.385333,-1.901334 1.901333,-1.901333 1.901333,-4.508 0,-2.606666 -1.962666,-4.538666 -1.962667,-1.932 -4.477334,-1.932 h -0.398666 z"
     style="font-style:normal;font-variant:normal;font-weight:normal;font-stretch:normal;font-size:30.66666603px;font-family:'Poiret One';-inkscape-font-specification:'Poiret One';fill:#333333;fill-opacity:1;stroke-width:0.39694604"
     id="path1568" /><path
     inkscape:connector-curvature="0"
     d="m 56.774123,39.896657 h 0.889333 V 63.233989 L 40.735457,42.411323 V 62.896656 H 39.846123 V 39.559323 l 16.928,20.792 z"
     style="font-style:normal;font-variant:normal;font-weight:normal;font-stretch:normal;font-size:30.66666603px;font-family:'Poiret One';-inkscape-font-specification:'Poiret One';fill:#333333;fill-opacity:1;stroke-width:0.39694604"
     id="path1570" /></g>

<g
   aria-label="World Pandemic Research Network"
   style="font-style:normal;font-variant:normal;font-weight:normal;font-stretch:normal;font-size:16px;line-height:1.25;font-family:Raleway;-inkscape-font-specification:Raleway;letter-spacing:0px;word-spacing:0px;fill:#000000;fill-opacity:1;stroke:none"
   id="text827"><path
     inkscape:connector-curvature="0"
     d="m -16.074752,66.591814 h 0.352 l 0.533333,1.344 0.538667,-1.344 h 0.357333 l -0.661333,1.616 0.725333,1.712 1.370667,-3.354667 h 0.405333 l -1.605333,3.786667 h -0.330667 l -0.794667,-1.872 -0.8,1.872 h -0.325333 l -1.6,-3.786667 h 0.4 l 1.376,3.354667 0.72,-1.712 z"
     style="font-size:5.33333349px;letter-spacing:-0.40000001px"
     id="path1573" /><path
     inkscape:connector-curvature="0"
     d="m -11.549836,70.405148 q -0.304,0 -0.554666,-0.112 -0.250667,-0.117334 -0.437334,-0.314667 -0.181333,-0.197333 -0.282666,-0.458667 -0.101334,-0.261333 -0.101334,-0.549333 0,-0.293333 0.101334,-0.554667 0.106666,-0.261333 0.288,-0.458666 0.186666,-0.197334 0.437333,-0.314667 0.250667,-0.117333 0.549333,-0.117333 0.298667,0 0.549334,0.117333 0.256,0.117333 0.437333,0.314667 0.186667,0.197333 0.288,0.458666 0.106667,0.261334 0.106667,0.554667 0,0.288 -0.101334,0.549333 -0.101333,0.261334 -0.288,0.458667 -0.181333,0.197333 -0.437333,0.314667 -0.250667,0.112 -0.554667,0.112 z m -1.008,-1.429334 q 0,0.234667 0.08,0.437334 0.08,0.197333 0.213334,0.352 0.138666,0.149333 0.32,0.234666 0.186666,0.08533 0.394666,0.08533 0.208,0 0.389334,-0.08533 0.186666,-0.09067 0.325333,-0.24 0.138667,-0.154666 0.218667,-0.357333 0.08,-0.202667 0.08,-0.437333 0,-0.229334 -0.08,-0.432 -0.08,-0.208 -0.218667,-0.357334 -0.138667,-0.154666 -0.325333,-0.24 -0.181334,-0.09067 -0.389334,-0.09067 -0.208,0 -0.389333,0.09067 -0.181333,0.08533 -0.32,0.24 -0.138667,0.154667 -0.218667,0.362667 -0.08,0.202667 -0.08,0.437333 z"
     style="font-size:5.33333349px;letter-spacing:-0.40000001px"
     id="path1575" /><path
     inkscape:connector-curvature="0"
     d="m -8.5700857,67.893148 q -0.368,0.01067 -0.64,0.202666 -0.272,0.192 -0.384,0.528 v 1.728 h -0.3626667 v -2.778666 h 0.3413334 v 0.666666 q 0.1546666,-0.32 0.416,-0.501333 0.2613333,-0.181333 0.56,-0.181333 0.042667,0 0.069333,0.0053 z"
     style="font-size:5.33333349px;letter-spacing:-0.40000001px"
     id="path1577" /><path
     inkscape:connector-curvature="0"
     d="m -8.465752,66.458481 h 0.3626667 v 3.264 q 0,0.154667 0.085333,0.245333 0.085333,0.08533 0.24,0.08533 0.058667,0 0.1386667,-0.016 0.08,-0.016 0.1493333,-0.04267 l 0.064,0.293333 q -0.1013333,0.04267 -0.2506666,0.06933 -0.144,0.02667 -0.2506667,0.02667 -0.2506667,0 -0.3946667,-0.138666 -0.144,-0.144 -0.144,-0.4 z"
     style="font-size:5.33333349px;letter-spacing:-0.40000001px"
     id="path1579" /><path
     inkscape:connector-curvature="0"
     d="m -6.2925022,70.405148 q -0.288,0 -0.5333334,-0.117334 -0.2453333,-0.122666 -0.4213333,-0.32 -0.176,-0.197333 -0.2773334,-0.453333 -0.096,-0.261333 -0.096,-0.544 0,-0.293333 0.096,-0.554667 0.096,-0.266666 0.2613334,-0.464 0.1706667,-0.197333 0.4,-0.309333 0.2346667,-0.117333 0.512,-0.117333 0.352,0 0.624,0.186666 0.272,0.181334 0.4266667,0.442667 v -1.696 h 0.3626667 v 3.424 q 0,0.149333 0.128,0.149333 v 0.32 q -0.08,0.016 -0.128,0.016 -0.128,0 -0.224,-0.08 -0.096,-0.08533 -0.096,-0.202666 v -0.272 q -0.1653334,0.272 -0.448,0.432 -0.2826667,0.16 -0.5866667,0.16 z m 0.08,-0.32 q 0.1333333,0 0.2826667,-0.05333 0.1546666,-0.05333 0.288,-0.144 0.1333333,-0.096 0.224,-0.218666 0.096,-0.128 0.1173333,-0.272 v -0.858667 q -0.053333,-0.144 -0.1546667,-0.266667 -0.1013333,-0.128 -0.2346666,-0.224 -0.128,-0.096 -0.2773334,-0.149333 -0.1493333,-0.05333 -0.2933333,-0.05333 -0.224,0 -0.4053334,0.096 -0.1813333,0.096 -0.3146666,0.256 -0.128,0.154666 -0.1973334,0.357333 -0.069333,0.202667 -0.069333,0.416 0,0.224 0.08,0.426667 0.08,0.202666 0.2186667,0.357333 0.1386666,0.149333 0.3253333,0.24 0.192,0.09067 0.4106667,0.09067 z"
     style="font-size:5.33333349px;letter-spacing:-0.40000001px"
     id="path1581" /><path
     inkscape:connector-curvature="0"
     d="m -3.4820851,70.351814 v -3.786667 h 1.568 q 0.2453333,0 0.448,0.106667 0.208,0.101333 0.3573334,0.272 0.1493333,0.165334 0.23466664,0.378667 0.0853333,0.213333 0.0853333,0.432 0,0.234667 -0.08,0.453333 -0.08,0.213334 -0.22399994,0.378667 -0.144,0.165333 -0.3466667,0.266667 -0.1973334,0.101333 -0.4426667,0.101333 h -1.2266667 v 1.397333 z m 0.3733333,-1.728 h 1.2106667 q 0.1653333,0 0.2986667,-0.06933 0.1386667,-0.07467 0.2346667,-0.192 0.096,-0.122667 0.1493333,-0.277333 0.053333,-0.16 0.053333,-0.330667 0,-0.176 -0.064,-0.330667 -0.058667,-0.16 -0.1653333,-0.277333 -0.1013333,-0.117333 -0.2453334,-0.181333 -0.1386666,-0.06933 -0.2933333,-0.06933 h -1.1786667 z"
     style="font-size:5.33333349px;letter-spacing:-0.40000001px"
     id="path1583" /><path
     inkscape:connector-curvature="0"
     d="m 0.0231643,70.405148 q -0.19733334,0 -0.36800001,-0.064 -0.16533334,-0.06933 -0.29333334,-0.186667 -0.12266667,-0.117333 -0.192,-0.272 -0.0693333,-0.16 -0.0693333,-0.341333 0,-0.181334 0.0853333,-0.336 0.0853333,-0.154667 0.24,-0.266667 0.15466667,-0.112 0.36800001,-0.170667 0.21333334,-0.064 0.46933335,-0.064 0.21333334,0 0.43200001,0.03733 0.21866668,0.03733 0.38933338,0.106666 v -0.250666 q 0,-0.368 -0.20800004,-0.581334 -0.208,-0.218666 -0.57600001,-0.218666 -0.21333334,0 -0.43733335,0.08533 -0.22400001,0.08533 -0.45333335,0.245333 l -0.128,-0.24 q 0.53866668,-0.362666 1.04533336,-0.362666 0.52266669,0 0.82133339,0.293333 0.2986666,0.293333 0.2986666,0.810667 v 1.253333 q 0,0.149333 0.1333334,0.149333 v 0.32 q -0.090667,0.016 -0.1386667,0.016 -0.1386667,0 -0.2186667,-0.06933 -0.074667,-0.06933 -0.08,-0.192 L 1.1324973,69.88781 q -0.19200004,0.250667 -0.48533338,0.384 -0.28800001,0.133334 -0.62400002,0.133334 z m 0.08533334,-0.277334 q 0.28266667,0 0.51733335,-0.106666 0.24000001,-0.106667 0.36266668,-0.282667 0.048,-0.048 0.0693333,-0.101333 0.026667,-0.05867 0.026667,-0.106667 v -0.453333 q -0.18133373,-0.06933 -0.37866707,-0.106667 -0.192,-0.03733 -0.39466668,-0.03733 -0.38400001,0 -0.62400002,0.16 -0.24,0.16 -0.24,0.421333 0,0.128 0.048,0.24 0.0533333,0.112 0.13866667,0.197333 0.0906667,0.08 0.21333334,0.128 0.12266667,0.048 0.26133334,0.048 z"
     style="font-size:5.33333349px;letter-spacing:-0.40000001px"
     id="path1585" /><path
     inkscape:connector-curvature="0"
     d="M 4.1667481,70.351814 H 3.8040814 v -1.552 q 0,-0.496 -0.1493333,-0.72 -0.1440001,-0.224 -0.4480001,-0.224 -0.16,0 -0.32,0.05867 -0.16,0.05867 -0.2986666,0.165333 -0.1333334,0.106667 -0.2400001,0.256 -0.1066666,0.144 -0.1546666,0.314667 v 1.701333 H 1.830748 v -2.778666 h 0.3306667 v 0.629333 q 0.1706666,-0.304 0.4853333,-0.490667 0.32,-0.186666 0.6933334,-0.186666 0.2293333,0 0.3893333,0.08533 0.16,0.08533 0.256,0.24 0.096,0.154667 0.1386667,0.378667 0.042667,0.224 0.042667,0.496 z"
     style="font-size:5.33333349px;letter-spacing:-0.40000001px"
     id="path1587" /><path
     inkscape:connector-curvature="0"
     d="m 5.6866638,70.405148 q -0.288,0 -0.5333333,-0.117334 -0.2453334,-0.122666 -0.4213334,-0.32 -0.176,-0.197333 -0.2773333,-0.453333 -0.096,-0.261333 -0.096,-0.544 0,-0.293333 0.096,-0.554667 0.096,-0.266666 0.2613333,-0.464 0.1706667,-0.197333 0.4,-0.309333 0.2346667,-0.117333 0.512,-0.117333 0.3520001,0 0.6240001,0.186666 0.272,0.181334 0.4266666,0.442667 v -1.696 h 0.3626667 v 3.424 q 0,0.149333 0.128,0.149333 v 0.32 q -0.08,0.016 -0.128,0.016 -0.128,0 -0.224,-0.08 -0.096,-0.08533 -0.096,-0.202666 v -0.272 q -0.1653333,0.272 -0.448,0.432 -0.2826667,0.16 -0.5866667,0.16 z m 0.08,-0.32 q 0.1333333,0 0.2826667,-0.05333 0.1546667,-0.05333 0.288,-0.144 0.1333333,-0.096 0.224,-0.218666 0.096,-0.128 0.1173333,-0.272 v -0.858667 q -0.053333,-0.144 -0.1546666,-0.266667 -0.1013334,-0.128 -0.2346667,-0.224 -0.128,-0.096 -0.2773333,-0.149333 -0.1493334,-0.05333 -0.2933334,-0.05333 -0.224,0 -0.4053333,0.096 -0.1813334,0.096 -0.3146667,0.256 -0.128,0.154666 -0.1973334,0.357333 -0.069333,0.202667 -0.069333,0.416 0,0.224 0.08,0.426667 0.08,0.202666 0.2186667,0.357333 0.1386667,0.149333 0.3253333,0.24 0.192,0.09067 0.4106667,0.09067 z"
     style="font-size:5.33333349px;letter-spacing:-0.40000001px"
     id="path1589" /><path
     inkscape:connector-curvature="0"
     d="m 8.6578309,70.405148 q -0.3040001,0 -0.5600001,-0.112 -0.2506666,-0.117334 -0.4373333,-0.314667 -0.1866667,-0.202667 -0.2933333,-0.464 -0.1013334,-0.261333 -0.1013334,-0.56 0,-0.293333 0.1013334,-0.549333 0.1066666,-0.261334 0.288,-0.453334 0.1866666,-0.197333 0.4426666,-0.309333 0.256,-0.117333 0.5546667,-0.117333 0.304,0 0.5546667,0.117333 0.256,0.112 0.4373334,0.309333 0.1813333,0.197334 0.2826666,0.453334 0.1013338,0.256 0.1013338,0.544 0,0.04267 0,0.08533 0,0.04267 -0.0053,0.05867 H 7.6444975 q 0.016,0.224 0.1013333,0.416 0.090667,0.186666 0.2293334,0.325333 0.1386666,0.138667 0.3146666,0.218667 0.1813334,0.07467 0.3840001,0.07467 0.1333333,0 0.2666666,-0.03733 0.1333334,-0.03733 0.2453334,-0.101333 0.112,-0.064 0.2026666,-0.154667 0.090667,-0.096 0.1386667,-0.208 l 0.3146667,0.08533 q -0.064,0.154667 -0.1813333,0.282667 -0.1173334,0.122667 -0.2720001,0.218667 -0.1546666,0.09067 -0.3413333,0.138666 -0.1866667,0.05333 -0.3893333,0.05333 z m 1.024,-1.589334 q -0.016,-0.224 -0.1066667,-0.405333 -0.085333,-0.186667 -0.224,-0.32 -0.1333333,-0.133333 -0.3146667,-0.208 -0.176,-0.07467 -0.3786666,-0.07467 -0.2026667,0 -0.3840001,0.07467 -0.1813333,0.07467 -0.32,0.208 -0.1333333,0.133333 -0.2186666,0.32 -0.08,0.186667 -0.096,0.405333 z"
     style="font-size:5.33333349px;letter-spacing:-0.40000001px"
     id="path1591" /><path
     inkscape:connector-curvature="0"
     d="m 14.326581,70.351814 h -0.362667 v -1.552 q 0,-0.485333 -0.154667,-0.714666 -0.154666,-0.229334 -0.458666,-0.229334 -0.16,0 -0.304,0.05867 -0.138667,0.05867 -0.261334,0.165333 -0.117333,0.106667 -0.208,0.256 -0.09067,0.144 -0.138666,0.32 v 1.696 h -0.362667 v -1.552 q 0,-0.496 -0.149333,-0.72 -0.149334,-0.224 -0.458667,-0.224 -0.314667,0 -0.56,0.218667 -0.245333,0.218667 -0.352,0.576 v 1.701333 h -0.362667 v -2.778666 h 0.330667 v 0.629333 q 0.170667,-0.32 0.448,-0.496 0.277333,-0.181333 0.613333,-0.181333 0.352,0 0.56,0.197333 0.213334,0.197333 0.261334,0.517333 0.389333,-0.714666 1.072,-0.714666 0.234666,0 0.394666,0.08533 0.165334,0.08533 0.261334,0.245333 0.101333,0.154667 0.144,0.378667 0.048,0.218667 0.048,0.490667 z"
     style="font-size:5.33333349px;letter-spacing:-0.40000001px"
     id="path1593" /><path
     inkscape:connector-curvature="0"
     d="m 14.6995,70.351814 v -2.778666 h 0.362666 v 2.778666 z m 0,-3.36 v -0.533333 h 0.362666 v 0.533333 z"
     style="font-size:5.33333349px;letter-spacing:-0.40000001px"
     id="path1595" /><path
     inkscape:connector-curvature="0"
     d="m 15.274166,68.954481 q 0,-0.293333 0.101333,-0.554667 0.101334,-0.261333 0.282667,-0.453333 0.186667,-0.197333 0.442667,-0.309333 0.256,-0.112 0.565333,-0.112 0.394667,0 0.688,0.181333 0.293333,0.176 0.442667,0.48 l -0.352,0.112 q -0.117334,-0.213333 -0.330667,-0.330667 -0.208,-0.122666 -0.464,-0.122666 -0.213333,0 -0.4,0.08533 -0.181333,0.08533 -0.32,0.234667 -0.133333,0.144 -0.213333,0.346666 -0.07467,0.202667 -0.07467,0.442667 0,0.234667 0.08,0.442667 0.08,0.208 0.218667,0.362666 0.138666,0.149334 0.32,0.24 0.186666,0.08533 0.394666,0.08533 0.133334,0 0.261334,-0.03733 0.133333,-0.03733 0.245333,-0.101333 0.112,-0.06933 0.192,-0.154667 0.08,-0.08533 0.112,-0.181333 l 0.357333,0.106667 q -0.05867,0.149333 -0.170666,0.277333 -0.112,0.122667 -0.266667,0.218667 -0.149333,0.09067 -0.336,0.138666 -0.181333,0.05333 -0.378667,0.05333 -0.304,0 -0.56,-0.112 -0.256,-0.117334 -0.442666,-0.314667 -0.186667,-0.202667 -0.293334,-0.464 -0.101333,-0.261333 -0.101333,-0.56 z"
     style="font-size:5.33333349px;letter-spacing:-0.40000001px"
     id="path1597" /><path
     inkscape:connector-curvature="0"
     d="m 19.032497,70.351814 v -3.786667 h 1.600001 q 0.245333,0 0.448,0.106667 0.208,0.101333 0.357333,0.272 0.149333,0.165334 0.229333,0.378667 0.08533,0.213333 0.08533,0.432 0,0.208 -0.064,0.4 -0.05867,0.186667 -0.170667,0.341333 -0.106667,0.149334 -0.261333,0.256 -0.154667,0.101334 -0.346667,0.138667 l 0.928,1.461333 h -0.421333 l -0.890667,-1.397333 h -1.12 v 1.397333 z m 0.373334,-1.728 h 1.237333 q 0.165334,0 0.298667,-0.06933 0.138667,-0.07467 0.234667,-0.197333 0.096,-0.122667 0.149333,-0.277334 0.05333,-0.154666 0.05333,-0.325333 0,-0.170667 -0.064,-0.325333 -0.05867,-0.16 -0.165333,-0.277334 -0.101333,-0.117333 -0.245333,-0.186666 -0.138667,-0.06933 -0.293334,-0.06933 h -1.205333 z"
     style="font-size:5.33333349px;letter-spacing:-0.40000001px"
     id="path1599" /><path
     inkscape:connector-curvature="0"
     d="m 23.153665,70.405148 q -0.304,0 -0.56,-0.112 -0.250666,-0.117334 -0.437333,-0.314667 -0.186667,-0.202667 -0.293333,-0.464 -0.101334,-0.261333 -0.101334,-0.56 0,-0.293333 0.101334,-0.549333 0.106666,-0.261334 0.288,-0.453334 0.186666,-0.197333 0.442666,-0.309333 0.256,-0.117333 0.554667,-0.117333 0.304,0 0.554667,0.117333 0.256,0.112 0.437333,0.309333 0.181333,0.197334 0.282667,0.453334 0.101333,0.256 0.101333,0.544 0,0.04267 0,0.08533 0,0.04267 -0.0053,0.05867 h -2.378667 q 0.016,0.224 0.101333,0.416 0.09067,0.186666 0.229334,0.325333 0.138666,0.138667 0.314666,0.218667 0.181334,0.07467 0.384,0.07467 0.133334,0 0.266667,-0.03733 0.133333,-0.03733 0.245333,-0.101333 0.112,-0.064 0.202667,-0.154667 0.09067,-0.096 0.138667,-0.208 l 0.314666,0.08533 q -0.064,0.154667 -0.181333,0.282667 -0.117333,0.122667 -0.272,0.218667 -0.154667,0.09067 -0.341333,0.138666 -0.186667,0.05333 -0.389334,0.05333 z m 1.024,-1.589334 q -0.016,-0.224 -0.106666,-0.405333 -0.08533,-0.186667 -0.224,-0.32 -0.133334,-0.133333 -0.314667,-0.208 -0.176,-0.07467 -0.378667,-0.07467 -0.202666,0 -0.384,0.07467 -0.181333,0.07467 -0.32,0.208 -0.133333,0.133333 -0.218666,0.32 -0.08,0.186667 -0.096,0.405333 z"
     style="font-size:5.33333349px;letter-spacing:-0.40000001px"
     id="path1601" /><path
     inkscape:connector-curvature="0"
     d="m 25.611748,70.405148 q -0.325333,0 -0.634666,-0.106667 -0.309334,-0.106667 -0.533334,-0.309333 l 0.165334,-0.245334 q 0.234666,0.192 0.474666,0.288 0.245334,0.096 0.522667,0.096 0.336,0 0.533333,-0.133333 0.202667,-0.138667 0.202667,-0.389333 0,-0.117334 -0.05333,-0.192 -0.05333,-0.08 -0.16,-0.138667 -0.101334,-0.05867 -0.261334,-0.101333 -0.154666,-0.048 -0.362666,-0.096 -0.24,-0.05867 -0.416,-0.117334 -0.176,-0.05867 -0.293334,-0.133333 -0.112,-0.07467 -0.170666,-0.181333 -0.05333,-0.112 -0.05333,-0.277334 0,-0.208 0.08,-0.368 0.08533,-0.16 0.224,-0.261333 0.144,-0.106667 0.330667,-0.16 0.192,-0.05333 0.405333,-0.05333 0.32,0 0.581334,0.106666 0.261333,0.101334 0.421333,0.272 l -0.176,0.213334 q -0.154667,-0.16 -0.378667,-0.24 -0.218666,-0.08 -0.458666,-0.08 -0.144,0 -0.266667,0.032 -0.122667,0.02667 -0.218667,0.09067 -0.09067,0.064 -0.144,0.165334 -0.05333,0.096 -0.05333,0.229333 0,0.112 0.03733,0.181333 0.03733,0.06933 0.122667,0.122667 0.08533,0.048 0.213333,0.09067 0.133334,0.03733 0.32,0.08 0.266667,0.064 0.469334,0.128 0.202666,0.064 0.336,0.149333 0.138666,0.08533 0.208,0.208 0.06933,0.122667 0.06933,0.298667 0,0.384 -0.293333,0.608 -0.293334,0.224 -0.789334,0.224 z"
     style="font-size:5.33333349px;letter-spacing:-0.40000001px"
     id="path1603" /><path
     inkscape:connector-curvature="0"
     d="m 28.08283,70.405148 q -0.304,0 -0.56,-0.112 -0.250667,-0.117334 -0.437333,-0.314667 -0.186667,-0.202667 -0.293334,-0.464 -0.101333,-0.261333 -0.101333,-0.56 0,-0.293333 0.101333,-0.549333 0.106667,-0.261334 0.288,-0.453334 0.186667,-0.197333 0.442667,-0.309333 0.256,-0.117333 0.554667,-0.117333 0.304,0 0.554666,0.117333 0.256,0.112 0.437334,0.309333 0.181333,0.197334 0.282666,0.453334 0.101334,0.256 0.101334,0.544 0,0.04267 0,0.08533 0,0.04267 -0.0053,0.05867 h -2.378666 q 0.016,0.224 0.101333,0.416 0.09067,0.186666 0.229333,0.325333 0.138667,0.138667 0.314667,0.218667 0.181333,0.07467 0.384,0.07467 0.133333,0 0.266667,-0.03733 0.133333,-0.03733 0.245333,-0.101333 0.112,-0.064 0.202667,-0.154667 0.09067,-0.096 0.138666,-0.208 l 0.314667,0.08533 q -0.064,0.154667 -0.181333,0.282667 -0.117334,0.122667 -0.272,0.218667 -0.154667,0.09067 -0.341334,0.138666 -0.186666,0.05333 -0.389333,0.05333 z m 1.024,-1.589334 q -0.016,-0.224 -0.106667,-0.405333 -0.08533,-0.186667 -0.224,-0.32 -0.133333,-0.133333 -0.314666,-0.208 -0.176,-0.07467 -0.378667,-0.07467 -0.202667,0 -0.384,0.07467 -0.181333,0.07467 -0.32,0.208 -0.133333,0.133333 -0.218667,0.32 -0.08,0.186667 -0.096,0.405333 z"
     style="font-size:5.33333349px;letter-spacing:-0.40000001px"
     id="path1605" /><path
     inkscape:connector-curvature="0"
     d="m 30.316917,70.405148 q -0.197333,0 -0.368,-0.064 -0.165333,-0.06933 -0.293333,-0.186667 -0.122667,-0.117333 -0.192,-0.272 -0.06933,-0.16 -0.06933,-0.341333 0,-0.181334 0.08533,-0.336 0.08533,-0.154667 0.24,-0.266667 0.154666,-0.112 0.368,-0.170667 0.213333,-0.064 0.469333,-0.064 0.213333,0 0.432,0.03733 0.218667,0.03733 0.389333,0.106666 v -0.250666 q 0,-0.368 -0.208,-0.581334 -0.208,-0.218666 -0.576,-0.218666 -0.213333,0 -0.437333,0.08533 -0.224,0.08533 -0.453333,0.245333 l -0.128,-0.24 q 0.538666,-0.362666 1.045333,-0.362666 0.522667,0 0.821333,0.293333 0.298667,0.293333 0.298667,0.810667 v 1.253333 q 0,0.149333 0.133333,0.149333 v 0.32 q -0.09067,0.016 -0.138666,0.016 -0.138667,0 -0.218667,-0.06933 -0.07467,-0.06933 -0.08,-0.192 l -0.01067,-0.218667 q -0.192,0.250667 -0.485333,0.384 -0.288,0.133334 -0.624,0.133334 z m 0.08533,-0.277334 q 0.282667,0 0.517334,-0.106666 0.24,-0.106667 0.362666,-0.282667 0.048,-0.048 0.06933,-0.101333 0.02667,-0.05867 0.02667,-0.106667 v -0.453333 q -0.181333,-0.06933 -0.378666,-0.106667 -0.192,-0.03733 -0.394667,-0.03733 -0.384,0 -0.624,0.16 -0.24,0.16 -0.24,0.421333 0,0.128 0.048,0.24 0.05333,0.112 0.138667,0.197333 0.09067,0.08 0.213333,0.128 0.122667,0.048 0.261333,0.048 z"
     style="font-size:5.33333349px;letter-spacing:-0.40000001px"
     id="path1607" /><path
     inkscape:connector-curvature="0"
     d="m 33.511165,67.893148 q -0.368,0.01067 -0.64,0.202666 -0.272,0.192 -0.384,0.528 v 1.728 h -0.362666 v -2.778666 h 0.341333 v 0.666666 q 0.154667,-0.32 0.416,-0.501333 0.261333,-0.181333 0.56,-0.181333 0.04267,0 0.06933,0.0053 z"
     style="font-size:5.33333349px;letter-spacing:-0.40000001px"
     id="path1609" /><path
     inkscape:connector-curvature="0"
     d="m 33.272083,68.954481 q 0,-0.293333 0.101333,-0.554667 0.101334,-0.261333 0.282667,-0.453333 0.186667,-0.197333 0.442667,-0.309333 0.256,-0.112 0.565333,-0.112 0.394667,0 0.688,0.181333 0.293334,0.176 0.442667,0.48 l -0.352,0.112 q -0.117333,-0.213333 -0.330667,-0.330667 -0.208,-0.122666 -0.464,-0.122666 -0.213333,0 -0.4,0.08533 -0.181333,0.08533 -0.32,0.234667 -0.133333,0.144 -0.213333,0.346666 -0.07467,0.202667 -0.07467,0.442667 0,0.234667 0.08,0.442667 0.08,0.208 0.218667,0.362666 0.138666,0.149334 0.32,0.24 0.186666,0.08533 0.394666,0.08533 0.133334,0 0.261334,-0.03733 0.133333,-0.03733 0.245333,-0.101333 0.112,-0.06933 0.192,-0.154667 0.08,-0.08533 0.112,-0.181333 l 0.357334,0.106667 q -0.05867,0.149333 -0.170667,0.277333 -0.112,0.122667 -0.266667,0.218667 -0.149333,0.09067 -0.336,0.138666 -0.181333,0.05333 -0.378667,0.05333 -0.304,0 -0.56,-0.112 -0.256,-0.117334 -0.442666,-0.314667 -0.186667,-0.202667 -0.293334,-0.464 -0.101333,-0.261333 -0.101333,-0.56 z"
     style="font-size:5.33333349px;letter-spacing:-0.40000001px"
     id="path1611" /><path
     inkscape:connector-curvature="0"
     d="m 38.327164,70.351814 h -0.362667 v -1.552 q 0,-0.474666 -0.165333,-0.709333 -0.16,-0.234667 -0.474667,-0.234667 -0.154667,0 -0.309333,0.064 -0.149334,0.05867 -0.282667,0.165334 -0.133333,0.106666 -0.234667,0.250666 -0.096,0.144 -0.144,0.314667 v 1.701333 h -0.362666 v -3.893333 h 0.362666 v 1.744 q 0.165334,-0.314667 0.458667,-0.496 0.293333,-0.181333 0.634667,-0.181333 0.24,0 0.405333,0.09067 0.165333,0.08533 0.272,0.245334 0.106667,0.154666 0.154667,0.378666 0.048,0.218667 0.048,0.485334 z"
     style="font-size:5.33333349px;letter-spacing:-0.40000001px"
     id="path1613" /><path
     inkscape:connector-curvature="0"
     d="m 40.118332,67.258481 v 3.093333 h -0.373333 v -3.786667 h 0.288 l 2.506667,3.152001 v -3.146667 h 0.373333 v 3.781333 h -0.325333 z"
     style="font-size:5.33333349px;letter-spacing:-0.40000001px"
     id="path1615" /><path
     inkscape:connector-curvature="0"
     d="m 44.543249,70.405148 q -0.304,0 -0.56,-0.112 -0.250667,-0.117334 -0.437334,-0.314667 -0.186666,-0.202667 -0.293333,-0.464 -0.101333,-0.261333 -0.101333,-0.56 0,-0.293333 0.101333,-0.549333 0.106667,-0.261334 0.288,-0.453334 0.186667,-0.197333 0.442667,-0.309333 0.256,-0.117333 0.554666,-0.117333 0.304,0 0.554667,0.117333 0.256,0.112 0.437333,0.309333 0.181334,0.197334 0.282667,0.453334 0.101334,0.256 0.101334,0.544 0,0.04267 0,0.08533 0,0.04267 -0.0053,0.05867 h -2.378667 q 0.016,0.224 0.101334,0.416 0.09067,0.186666 0.229333,0.325333 0.138667,0.138667 0.314667,0.218667 0.181333,0.07467 0.384,0.07467 0.133333,0 0.266666,-0.03733 0.133334,-0.03733 0.245334,-0.101333 0.112,-0.064 0.202666,-0.154667 0.09067,-0.096 0.138667,-0.208 l 0.314667,0.08533 q -0.064,0.154667 -0.181334,0.282667 -0.117333,0.122667 -0.272,0.218667 -0.154666,0.09067 -0.341333,0.138666 -0.186667,0.05333 -0.389333,0.05333 z m 1.024,-1.589334 q -0.016,-0.224 -0.106667,-0.405333 -0.08533,-0.186667 -0.224,-0.32 -0.133333,-0.133333 -0.314667,-0.208 -0.176,-0.07467 -0.378666,-0.07467 -0.202667,0 -0.384,0.07467 -0.181334,0.07467 -0.32,0.208 -0.133334,0.133333 -0.218667,0.32 -0.08,0.186667 -0.096,0.405333 z"
     style="font-size:5.33333349px;letter-spacing:-0.40000001px"
     id="path1617" /><path
     inkscape:connector-curvature="0"
     d="m 47.391166,70.218481 q -0.032,0.016 -0.096,0.04267 -0.05867,0.02667 -0.138666,0.05333 -0.08,0.02667 -0.181334,0.048 -0.101333,0.02133 -0.213333,0.02133 -0.117333,0 -0.224,-0.032 -0.106667,-0.032 -0.186667,-0.096 -0.08,-0.06933 -0.128,-0.170666 -0.048,-0.101334 -0.048,-0.234667 v -1.989333 h -0.384 v -0.288 h 0.384 v -0.938667 h 0.362667 v 0.938667 h 0.64 v 0.288 h -0.64 v 1.888 q 0.01067,0.154666 0.106667,0.229333 0.101333,0.06933 0.229333,0.06933 0.154667,0 0.272,-0.048 0.117333,-0.05333 0.149333,-0.07467 z"
     style="font-size:5.33333349px;letter-spacing:-0.40000001px"
     id="path1619" /><path
     inkscape:connector-curvature="0"
     d="M 50.948166,67.573148 H 51.3055 l -1.194667,2.778666 h -0.298667 l -0.597333,-1.418666 -0.592,1.418666 H 48.324166 L 47.1295,67.573148 h 0.352 l 1.013333,2.405333 0.528,-1.269333 -0.474667,-1.130667 h 0.304 l 0.362667,0.906667 0.362667,-0.906667 h 0.309333 l -0.474667,1.130667 0.528,1.269333 z"
     style="font-size:5.33333349px;letter-spacing:-0.40000001px"
     id="path1621" /><path
     inkscape:connector-curvature="0"
     d="m 52.46267,70.405148 q -0.304,0 -0.554667,-0.112 -0.250667,-0.117334 -0.437333,-0.314667 -0.181334,-0.197333 -0.282667,-0.458667 -0.101333,-0.261333 -0.101333,-0.549333 0,-0.293333 0.101333,-0.554667 0.106667,-0.261333 0.288,-0.458666 0.186667,-0.197334 0.437333,-0.314667 0.250667,-0.117333 0.549334,-0.117333 0.298666,0 0.549333,0.117333 0.256,0.117333 0.437333,0.314667 0.186667,0.197333 0.288,0.458666 0.106667,0.261334 0.106667,0.554667 0,0.288 -0.101333,0.549333 -0.101334,0.261334 -0.288,0.458667 -0.181334,0.197333 -0.437334,0.314667 -0.250666,0.112 -0.554666,0.112 z m -1.008,-1.429334 q 0,0.234667 0.08,0.437334 0.08,0.197333 0.213333,0.352 0.138667,0.149333 0.32,0.234666 0.186667,0.08533 0.394667,0.08533 0.208,0 0.389333,-0.08533 0.186667,-0.09067 0.325333,-0.24 0.138667,-0.154666 0.218667,-0.357333 0.08,-0.202667 0.08,-0.437333 0,-0.229334 -0.08,-0.432 -0.08,-0.208 -0.218667,-0.357334 -0.138666,-0.154666 -0.325333,-0.24 -0.181333,-0.09067 -0.389333,-0.09067 -0.208,0 -0.389334,0.09067 -0.181333,0.08533 -0.32,0.24 -0.138666,0.154667 -0.218666,0.362667 -0.08,0.202667 -0.08,0.437333 z"
     style="font-size:5.33333349px;letter-spacing:-0.40000001px"
     id="path1623" /><path
     inkscape:connector-curvature="0"
     d="m 55.442413,67.893148 q -0.368,0.01067 -0.64,0.202666 -0.272,0.192 -0.384,0.528 v 1.728 h -0.362667 v -2.778666 h 0.341334 v 0.666666 q 0.154666,-0.32 0.416,-0.501333 0.261333,-0.181333 0.56,-0.181333 0.04267,0 0.06933,0.0053 z"
     style="font-size:5.33333349px;letter-spacing:-0.40000001px"
     id="path1625" /><path
     inkscape:connector-curvature="0"
     d="m 57.514753,70.351814 -1.024,-1.424 -0.597334,0.554667 v 0.869333 h -0.362666 v -3.893333 h 0.362666 v 2.645333 l 1.562667,-1.525333 h 0.410667 l -1.136,1.136 1.178666,1.637333 z"
     style="font-size:5.33333349px;letter-spacing:-0.40000001px"
     id="path1627" /></g>

</g></g><flowRoot
     transform="translate(1764.0831,1996.0641)"
     style="font-style:normal;font-variant:normal;font-weight:normal;font-stretch:normal;font-size:16px;line-height:1.25;font-family:Raleway;-inkscape-font-specification:Raleway;letter-spacing:0px;word-spacing:0px;fill:#000000;fill-opacity:1;stroke:none"
     id="flowRoot831"
     xml:space="preserve"><flowRegion
       id="flowRegion833"><rect
         y="-291.10168"
         x="-11.54661"
         height="384.85168"
         width="95.55085"
         id="rect835" /></flowRegion><flowPara
       id="flowPara837" /></flowRoot></svg>